<svg aria-hidden="true" style="position:absolute;width:0;height:0;overflow:hidden" xmlns="http://www.w3.org/2000/svg">
  <defs>
    <symbol id="icon-support" viewBox="0 0 32 32">
      <path fill="none" stroke="#fff" style="stroke:var(--color1, #fff)" stroke-linejoin="round" stroke-linecap="round" stroke-width="1.829" d="M16.091 28c6.627 0 12-5.373 12-12s-5.373-12-12-12-12 5.373-12 12 5.373 12 12 12z"/>
      <path fill="none" stroke="#fff" style="stroke:var(--color1, #fff)" stroke-linejoin="round" stroke-linecap="round" stroke-width="1.829" d="M16.091 9.333V16l2.667 4"/>
    </symbol>
    <symbol id="icon-install" viewBox="0 0 32 32">
      <path fill="none" stroke="#fff" style="stroke:var(--color1, #fff)" stroke-linejoin="round" stroke-linecap="round" stroke-width="1.829" d="M27.425 27.333a2.666 2.666 0 0 1-3.774 0l-6.947-6.947a8.784 8.784 0 0 1-5.947.733 8.662 8.662 0 0 1-6.666-7.68 8.559 8.559 0 0 1 .867-4.627l5.8 5.853 3.333-.667.667-3.333-5.853-5.76a8.572 8.572 0 0 1 4.627-.907 8.67 8.67 0 0 1 7.68 6.666 8.786 8.786 0 0 1-.733 5.893l6.947 6.947a2.671 2.671 0 0 1 .599 2.953 2.671 2.671 0 0 1-.599.875v0z"/>
    </symbol>
    <symbol id="icon-speed" viewBox="0 0 32 32">
      <path fill="none" stroke="#fff" style="stroke:var(--color1, #fff)" stroke-linejoin="round" stroke-linecap="round" stroke-width="1.829" d="M28 17.333a11.996 11.996 0 0 1-4.48 9.334H8.48a12.008 12.008 0 0 1-4.4-10.736 11.993 11.993 0 0 1 6.744-9.442 12.001 12.001 0 0 1 17.177 10.845v0z"/>
      <path fill="none" stroke="#fff" style="stroke:var(--color1, #fff)" stroke-linejoin="round" stroke-linecap="round" stroke-width="1.829" d="M21.333 12 16 20m1.333 0a1.332 1.332 0 0 1-1.593 1.308 1.332 1.332 0 0 1-.481-2.416 1.337 1.337 0 0 1 1.684.166c.25.251.391.589.391.943z"/>
    </symbol>
  </defs>
</svg>
