<svg aria-hidden="true" style="position:absolute;width:0;height:0;overflow:hidden" xmlns="http://www.w3.org/2000/svg">
  <defs>
    <symbol id="icon-support" viewBox="0 0 32 32">
      <path fill="none" stroke="#fff" style="stroke:var(--color1, #fff)" stroke-linejoin="round" stroke-linecap="round" stroke-width="1.829" d="M16.091 28c6.627 0 12-5.373 12-12s-5.373-12-12-12-12 5.373-12 12 5.373 12 12 12z"/>
      <path fill="none" stroke="#fff" style="stroke:var(--color1, #fff)" stroke-linejoin="round" stroke-linecap="round" stroke-width="1.829" d="M16.091 9.333V16l2.667 4"/>
    </symbol>
    <symbol id="icon-install" viewBox="0 0 32 32">
      <path fill="none" stroke="#fff" style="stroke:var(--color1, #fff)" stroke-linejoin="round" stroke-linecap="round" stroke-width="1.829" d="M27.425 27.333a2.666 2.666 0 0 1-3.774 0l-6.947-6.947a8.784 8.784 0 0 1-5.947.733 8.662 8.662 0 0 1-6.666-7.68 8.559 8.559 0 0 1 .867-4.627l5.8 5.853 3.333-.667.667-3.333-5.853-5.76a8.572 8.572 0 0 1 4.627-.907 8.67 8.67 0 0 1 7.68 6.666 8.786 8.786 0 0 1-.733 5.893l6.947 6.947a2.671 2.671 0 0 1 .599 2.953 2.671 2.671 0 0 1-.599.875v0z"/>
    </symbol>
    <symbol id="icon-speed" viewBox="0 0 32 32">
      <path fill="none" stroke="#fff" style="stroke:var(--color1, #fff)" stroke-linejoin="round" stroke-linecap="round" stroke-width="1.829" d="M28 17.333a11.996 11.996 0 0 1-4.48 9.334H8.48a12.008 12.008 0 0 1-4.4-10.736 11.993 11.993 0 0 1 6.744-9.442 12.001 12.001 0 0 1 17.177 10.845v0z"/>
      <path fill="none" stroke="#fff" style="stroke:var(--color1, #fff)" stroke-linejoin="round" stroke-linecap="round" stroke-width="1.829" d="M21.333 12 16 20m1.333 0a1.332 1.332 0 0 1-1.593 1.308 1.332 1.332 0 0 1-.481-2.416 1.337 1.337 0 0 1 1.684.166c.25.251.391.589.391.943z"/>
    </symbol>
    <symbol id="icon-user" viewBox="0 0 33 32">
      <path d="M18.157 27.34l-3.177-3.060-2.959-2.84 3.947-0.58 4.439-0.64 0.572-1.14h-0.039c-0.453 0-0.892-0.157-1.243-0.447-0.344-0.285-0.59-0.679-0.686-1.128l-0.002-0.013c-0.002-1.234 1.576-0.834 2.819-2.914 0.158-0.040 5.564-14.58-5.485-14.58s-5.643 14.54-5.643 14.54c1.243 2 2.841 1.7 2.822 2.9s-1.46 1.6-2.822 1.74c-2.249 0.26-4.222-0.26-6.195 3.52-1.184 2.18-1.677 9.3-1.677 9.3h14.521v-0.34l0.809-4.318zM23.682 32h1.105l-0.553-0.28-0.552 0.28z"></path>
      <path d="M24.234 29.46l4.873 2.54-0.927-5.38 3.945-3.8-5.445-0.78-2.447-4.9-2.447 4.9-5.445 0.78 3.945 3.8-0.927 5.38 4.873-2.54z"></path>
    </symbol>
  </defs>
</svg>
