<svg width="249" height="229" fill="none" xmlns="http://www.w3.org/2000/svg">
  <path d="M11.547 25.66c1.962.797 6.761.7 6.767.7.005 0-1.047-2.934-1.12-3.115-1.057-2.058-4.391-5.441-7.086-5.118a3.38 3.38 0 0 0-1.262.453 3.14 3.14 0 0 0-.953.895c-.247.357-.41.76-.48 1.18-.07.42-.043.85.078 1.26.455 1.755 2.381 3.06 4.056 3.745ZM60.114 26.643c.042 0 .874-2.978.906-3.173.335-2.264-.435-6.815-2.9-7.925a3.434 3.434 0 0 0-2.637-.008 3.242 3.242 0 0 0-1.093.738 2.985 2.985 0 0 0-.676 1.089c-.66 1.696.178 3.779 1.172 5.206 1.162 1.682 5.228 4.073 5.228 4.073Z" fill="#275F7A"/>
  <path d="M74.449 10.388c-2.721-.274-5.95 3.212-6.945 5.294-.089.181-1.083 3.144-1.047 3.144h.058c-.523.543-1.047 1.134-1.644 1.794-1.046 1.217-2.255 2.606-3.438 4.2a52.589 52.589 0 0 0-3.57 5.309 37.682 37.682 0 0 0-3.045 6.409v.078c0-.748 0-2.84-.042-3.002-.314-2.263-2.345-6.463-5.035-6.927a3.463 3.463 0 0 0-1.351.066 3.33 3.33 0 0 0-1.205.576c-.354.269-.643.604-.848.985a2.87 2.87 0 0 0-.343 1.223c-.157 1.8 1.24 3.598 2.617 4.732 1.533 1.281 5.793 2.523 6.134 2.616a50.843 50.843 0 0 0-1.8 6.947 88.004 88.004 0 0 0-.681 4.14c0-.65 0-1.227-.037-1.305-.314-2.263-2.344-6.468-5.034-6.932a3.46 3.46 0 0 0-1.346.07 3.328 3.328 0 0 0-1.199.576c-.352.269-.64.603-.844.982a2.87 2.87 0 0 0-.343 1.217c-.157 1.8 1.235 3.598 2.617 4.733 1.381 1.134 4.956 2.268 5.898 2.561-.068.533-.146 1.066-.215 1.599-.33 2.566-.643 5.128-1.046 7.631-.136.88-.309 1.745-.477 2.61 0-.576 0-1.06-.03-1.134-.315-2.263-2.346-6.462-5.036-6.927a3.45 3.45 0 0 0-1.347.067c-.439.11-.848.307-1.2.576-.352.268-.64.603-.844.983-.204.38-.32.795-.34 1.22-.162 1.793 1.235 3.597 2.617 4.732 1.381 1.134 4.642 2.165 5.757 2.508a53.594 53.594 0 0 1-.634 2.61c-.172.572-.303 1.14-.523 1.706-.22.567-.387 1.125-.58 1.677-.41 1.056-.828 2.146-1.257 3.168-.293.714-.586 1.383-.874 2.063.146-.875.398-2.596.403-2.742a11.152 11.152 0 0 0-1.69-5.715 3.205 3.205 0 0 0-.042-.67 2.898 2.898 0 0 0-.441-1.18 3.12 3.12 0 0 0-.915-.914 3.364 3.364 0 0 0-1.231-.49 3.464 3.464 0 0 0-1.338.017c-2.617.655-4.318 4.992-4.444 7.27a89 89 0 0 0 .162 2.527c-.13-.538-.256-1.06-.397-1.613-.278-1.09-.592-2.175-.921-3.339l-.524-1.692c-.172-.567-.429-1.144-.638-1.725a61.915 61.915 0 0 0-1.759-3.994c1.02-.23 4.643-1.09 6.097-2.132 1.455-1.041 2.983-2.737 2.968-4.541a2.848 2.848 0 0 0-.245-1.239 3.026 3.026 0 0 0-.764-1.038 3.284 3.284 0 0 0-1.15-.657 3.446 3.446 0 0 0-1.337-.161c-2.722.274-5.082 4.322-5.574 6.56-.031.138-.194 1.78-.262 2.68-.387-.792-.769-1.59-1.193-2.381-1.214-2.288-2.522-4.566-3.815-6.844-.398-.7-.78-1.399-1.172-2.098.366-.078 4.71-1.016 6.322-2.185 1.45-1.036 2.983-2.733 2.972-4.537a2.856 2.856 0 0 0-.246-1.239 3.035 3.035 0 0 0-.765-1.039 3.292 3.292 0 0 0-1.152-.657 3.458 3.458 0 0 0-1.338-.164c-2.716.279-5.076 4.327-5.574 6.56-.036.167-.261 2.528-.287 3.134a62.095 62.095 0 0 1-2.465-4.63 51.332 51.332 0 0 1-2.67-6.443c.173-.034 4.71-.977 6.364-2.19 1.445-1.041 2.983-2.738 2.968-4.541a2.851 2.851 0 0 0-.248-1.244 3.03 3.03 0 0 0-.771-1.04 3.29 3.29 0 0 0-1.159-.656 3.453 3.453 0 0 0-1.344-.155c-2.722.274-5.082 4.322-5.574 6.556-.031.147-.21 1.955-.272 2.806h-.157a36.98 36.98 0 0 1-1.392-6.844 43.665 43.665 0 0 1-.262-3.681c.853-.06 4.81-.548 6.437-1.472 1.628-.924 3.313-2.415 3.486-4.21.06-.419.024-.845-.104-1.251a2.97 2.97 0 0 0-.64-1.105 3.222 3.222 0 0 0-1.064-.768 3.426 3.426 0 0 0-1.306-.297c-2.737 0-5.558 3.779-6.312 5.95-.037.117-.314 1.358-.523 2.268 0-.538-.032-1.09-.032-1.609 0-1.93.136-3.7.267-5.265.079-.89.173-1.696.267-2.444.796-.49 3.957-2.596 4.93-4.087.974-1.491 1.727-3.554 1.047-5.231a2.995 2.995 0 0 0-.706-1.075 3.253 3.253 0 0 0-1.114-.712 3.437 3.437 0 0 0-2.64.076c-2.427 1.173-3.071 5.74-2.668 7.993.037.196.952 3.178.994 3.153a.225.225 0 0 0 .047-.034c-.104.723-.209 1.496-.308 2.347-.168 1.564-.34 3.334-.388 5.274a50.466 50.466 0 0 0 .163 6.268 36.977 36.977 0 0 0 1.24 6.912.501.501 0 0 1 0 .084c-.403-.646-1.67-2.376-1.79-2.513-1.57-1.726-5.757-4.18-8.29-3.183a3.234 3.234 0 0 0-1.082.752 2.98 2.98 0 0 0-.66 1.098 2.837 2.837 0 0 0-.125 1.254c.053.422.2.828.433 1.193.932 1.58 3.14 2.362 4.961 2.606 2.041.279 6.322-.88 6.663-.978a52.177 52.177 0 0 0 2.616 6.722 98.93 98.93 0 0 0 1.88 3.804 23.235 23.235 0 0 0-.801-1.071c-1.597-1.73-5.757-4.185-8.29-3.187a3.233 3.233 0 0 0-1.082.752 2.98 2.98 0 0 0-.66 1.098 2.837 2.837 0 0 0-.125 1.254c.053.421.2.828.433 1.193.931 1.584 3.14 2.361 4.961 2.61 1.821.25 5.506-.674 6.48-.928.256.488.523.977.763 1.466 1.24 2.308 2.491 4.605 3.664 6.893a66.19 66.19 0 0 1 1.146 2.445c-.35-.49-.649-.87-.696-.93-1.602-1.725-5.757-4.18-8.295-3.182a3.233 3.233 0 0 0-1.082.752c-.3.319-.525.693-.66 1.098a2.836 2.836 0 0 0-.125 1.254c.053.422.2.828.433 1.193.931 1.58 3.14 2.362 4.966 2.606 1.827.244 5.145-.582 6.28-.88.351.836.707 1.677 1.01 2.503.194.567.42 1.1.582 1.682.162.581.34 1.139.523 1.701.283 1.095.576 2.22.822 3.29.178.743.33 1.467.486 2.17-.392-.806-1.203-2.37-1.287-2.493-1.298-1.93-5.024-4.952-7.678-4.321a3.317 3.317 0 0 0-1.184.595 3.064 3.064 0 0 0-.824.992 2.848 2.848 0 0 0-.085 2.456c.665 1.696 2.737 2.781 4.485 3.28 1.92.553 6.17.05 6.704 0a131.5 131.5 0 0 1 .696 3.422 148.93 148.93 0 0 1 1.424 9.147h1.852v-.152c-.33-2.248-.853-5.455-1.664-9.288-.251-1.208-.55-2.488-.869-3.808a35.564 35.564 0 0 0 3.742-1.643c1.398 1.418 4.988 3.075 5.454 3.285a139.52 139.52 0 0 1-1.455 3.227c-1.628 3.5-3.14 6.355-4.187 8.364h2.036a149.781 149.781 0 0 0 3.663-7.773c.524-1.139 1.01-2.36 1.523-3.622.524.098 4.71.9 6.689.489 1.78-.377 3.935-1.315 4.71-2.963a2.84 2.84 0 0 0 .107-2.46 3.014 3.014 0 0 0-.75-1.046 3.271 3.271 0 0 0-1.142-.669c-2.616-.816-6.552 1.956-8.002 3.77-.089.112-.874 1.383-1.36 2.194.209-.518.413-1.016.617-1.554.419-1.051.796-2.117 1.21-3.256l.522-1.692c.194-.562.32-1.178.487-1.77a57.69 57.69 0 0 0 .89-4.238c.989.337 4.516 1.467 6.348 1.364 1.832-.103 4.103-.743 5.155-2.254.264-.348.445-.744.533-1.162.088-.419.08-.85-.022-1.265a2.942 2.942 0 0 0-.574-1.146 3.186 3.186 0 0 0-1.025-.826c-2.429-1.174-6.804.977-8.52 2.596-.11.102-1.215 1.388-1.806 2.102.146-.86.298-1.721.413-2.601.335-2.532.592-5.109.859-7.675.083-.788.178-1.57.261-2.352.35.122 4.517 1.57 6.563 1.437 1.821-.122 4.103-.743 5.16-2.258.265-.348.447-.745.535-1.163.089-.419.081-.85-.021-1.265a2.938 2.938 0 0 0-.575-1.146 3.185 3.185 0 0 0-1.027-.826c-2.434-1.173-6.804.978-8.52 2.596-.131.122-1.717 1.955-2.094 2.444.2-1.73.408-3.422.691-5.133a50.42 50.42 0 0 1 1.57-6.751c.162.058 4.5 1.589 6.594 1.466 1.822-.117 4.104-.743 5.16-2.253.264-.349.446-.745.534-1.163.088-.419.08-.85-.023-1.265a2.94 2.94 0 0 0-.574-1.146 3.188 3.188 0 0 0-1.025-.826c-2.433-1.173-6.804.977-8.52 2.596-.115.107-1.324 1.515-1.884 2.2l-.136-.069a37.325 37.325 0 0 1 2.815-6.37 45.163 45.163 0 0 1 1.958-3.202c.774.362 4.344 1.956 6.243 2.053 1.9.098 4.187-.322 5.396-1.716.3-.318.524-.693.66-1.098.134-.405.176-.832.123-1.253a2.895 2.895 0 0 0-.433-1.192 3.118 3.118 0 0 0-.915-.925c-2.282-1.413-6.867.284-8.777 1.706-.105.079-1.047.978-1.758 1.638.309-.455.617-.929.926-1.354 1.141-1.614 2.298-3.021 3.329-4.258a83.47 83.47 0 0 1 1.67-1.902c.957 0 4.83-.127 6.525-.865 1.696-.738 3.538-2.078 3.936-3.843.11-.41.125-.839.046-1.256a2.917 2.917 0 0 0-.505-1.165 3.152 3.152 0 0 0-.967-.873 3.386 3.386 0 0 0-1.264-.431ZM244.048 204.299c-1.994-.729-6.804-.455-6.804-.455s1.151 2.894 1.251 3.07c1.135 2.019 4.605 5.3 7.301 4.86a3.364 3.364 0 0 0 1.236-.504c.37-.247.68-.563.91-.929.231-.366.376-.773.427-1.195a2.842 2.842 0 0 0-.129-1.254c-.529-1.736-2.502-2.967-4.192-3.593ZM195.464 205.042c-.047-.025-.753 3.006-.774 3.207-.246 2.268.712 6.79 3.218 7.822a3.445 3.445 0 0 0 2.631-.078 3.21 3.21 0 0 0 1.062-.77 2.97 2.97 0 0 0 .636-1.108c.591-1.721-.33-3.769-1.382-5.162-1.23-1.663-5.391-3.911-5.391-3.911Z" fill="#275F7A"/>
  <path d="M181.805 221.8c2.727.176 5.814-3.422 6.725-5.539.078-.181.952-3.177.9-3.177h-.057a72.925 72.925 0 0 0 1.57-1.853c1.01-1.257 2.145-2.684 3.265-4.322a52.635 52.635 0 0 0 3.35-5.431 38.067 38.067 0 0 0 2.779-6.512.384.384 0 0 0 0-.083c0 .753.141 2.84.167 3.002.409 2.248 2.617 6.355 5.318 6.741.451.05.908.011 1.342-.115a3.295 3.295 0 0 0 1.175-.617c.34-.28.614-.625.803-1.011.188-.386.287-.805.291-1.229.089-1.804-1.382-3.554-2.79-4.64-1.57-1.222-5.893-2.312-6.233-2.395a51.012 51.012 0 0 0 1.513-7.001c.204-1.378.366-2.767.523-4.165.037.645.078 1.222.089 1.305.408 2.249 2.617 6.356 5.317 6.742.451.05.909.011 1.342-.115a3.303 3.303 0 0 0 1.175-.617c.341-.281.615-.625.803-1.011.189-.386.288-.805.291-1.229.089-1.804-1.381-3.555-2.789-4.64-1.408-1.085-5.077-2.097-6.05-2.346.052-.538.105-1.076.152-1.609.225-2.576.434-5.148.722-7.66.105-.885.235-1.755.372-2.626.031.572.062 1.056.078 1.13.403 2.248 2.617 6.355 5.312 6.746.452.049.909.01 1.343-.117a3.31 3.31 0 0 0 1.176-.618c.341-.281.615-.626.804-1.012.189-.386.289-.805.293-1.23.084-1.804-1.386-3.549-2.789-4.64-1.403-1.09-4.71-1.999-5.877-2.302.162-.885.324-1.775.523-2.63.152-.577.251-1.144.44-1.721.188-.577.34-1.139.523-1.697.366-1.07.738-2.175 1.125-3.211.262-.719.524-1.403.791-2.093-.11.88-.294 2.611-.288 2.757a11.233 11.233 0 0 0 1.915 5.647c.004.225.028.449.073.67.071.421.236.823.485 1.181.249.357.576.661.959.892.384.231.815.383 1.266.447a3.46 3.46 0 0 0 1.352-.076c2.616-.748 4.113-5.143 4.145-7.421 0-.137-.152-1.599-.267-2.523.157.533.298 1.051.466 1.599.324 1.08.68 2.151 1.046 3.305.204.552.408 1.105.613 1.667.204.562.476 1.134.711 1.706a55.632 55.632 0 0 0 1.921 3.911c-1.015.264-4.6 1.256-6.008 2.351-1.408 1.096-2.868 2.836-2.784 4.64.005.424.106.843.296 1.228.19.386.465.729.807 1.009.341.28.742.49 1.176.615.434.126.891.165 1.342.115 2.706-.371 4.899-4.497 5.302-6.751 0-.137.12-1.784.152-2.689.424.782.837 1.56 1.292 2.337 1.309 2.244 2.706 4.473 4.093 6.707.424.68.837 1.369 1.256 2.054-.361.088-4.653 1.183-6.228 2.405-1.408 1.09-2.873 2.84-2.784 4.644.005.425.105.844.295 1.229.19.386.464.73.806 1.01a3.3 3.3 0 0 0 1.177.615c.434.126.892.164 1.343.114 2.706-.372 4.899-4.503 5.302-6.752.031-.171.162-2.537.162-3.143.921 1.51 1.822 3.021 2.643 4.546a50.602 50.602 0 0 1 2.931 6.356c-.167.044-4.647 1.163-6.28 2.415-1.403 1.09-2.868 2.84-2.779 4.644.005.424.105.842.295 1.228.189.385.463.729.804 1.009.341.28.742.49 1.176.616.433.125.89.164 1.341.114 2.711-.371 4.904-4.502 5.302-6.751.026-.147.131-1.955.157-2.811h.157a36.945 36.945 0 0 1 1.669 6.771c.204 1.261.325 2.478.408 3.666-.853.128-4.767.758-6.353 1.736-1.586.978-3.187 2.527-3.313 4.326-.045.423.006.85.149 1.253.144.403.376.773.683 1.086.306.314.68.564 1.097.733.416.17.867.256 1.321.253 2.732-.093 5.401-3.97 6.066-6.17.031-.117.256-1.369.408-2.283.026.538.073 1.09.089 1.604.079 1.931 0 3.705-.047 5.275a77.908 77.908 0 0 1-.168 2.444c-.774.538-3.851 2.738-4.762 4.258-.911 1.52-1.57 3.618-.801 5.27.169.394.425.75.751 1.046.325.295.714.524 1.141.67a3.441 3.441 0 0 0 2.63-.166c2.381-1.261 2.831-5.867 2.339-8.086-.042-.191-1.083-3.144-1.12-3.114a.225.225 0 0 0-.047.034c.079-.724.152-1.501.215-2.351.099-1.575.199-3.349.167-5.29a49.635 49.635 0 0 0-.413-6.258 37.598 37.598 0 0 0-1.523-6.844l-.032-.078c.456.616 1.79 2.298 1.911 2.415 1.669 1.667 5.94 3.974 8.415 2.884.406-.191.763-.46 1.05-.789.287-.328.497-.71.615-1.12.119-.409.143-.837.073-1.256a2.904 2.904 0 0 0-.482-1.176c-.994-1.55-3.25-2.249-5.066-2.444-2.046-.206-6.28 1.105-6.615 1.212a51.59 51.59 0 0 0-2.847-6.653 85.408 85.408 0 0 0-2.036-3.735c.414.518.785.977.848 1.041 1.669 1.667 5.94 3.974 8.416 2.884.405-.191.763-.46 1.05-.789.286-.328.496-.71.614-1.12.119-.409.144-.837.073-1.256a2.902 2.902 0 0 0-.481-1.176c-.995-1.55-3.25-2.249-5.066-2.444-1.817-.196-5.475.865-6.433 1.153-.277-.488-.523-.943-.826-1.417-1.335-2.259-2.675-4.513-3.92-6.761-.44-.792-.838-1.584-1.241-2.376.367.459.681.845.733.899 1.669 1.667 5.94 3.975 8.416 2.89a3.213 3.213 0 0 0 1.05-.791 2.96 2.96 0 0 0 .615-1.121c.118-.41.143-.838.072-1.258a2.912 2.912 0 0 0-.481-1.177c-.995-1.549-3.25-2.248-5.066-2.444-1.817-.195-5.119.768-6.281 1.105-.387-.821-.78-1.648-1.114-2.444-.215-.563-.466-1.091-.649-1.663l-.576-1.681c-.325-1.081-.67-2.195-.958-3.256-.204-.738-.387-1.467-.57-2.156.424.792 1.292 2.327 1.381 2.444 1.382 1.882 5.234 4.767 7.851 4.043a3.29 3.29 0 0 0 1.165-.632c.337-.285.606-.633.79-1.021a2.856 2.856 0 0 0-.008-2.463c-.728-1.667-2.848-2.684-4.611-3.119-1.942-.489-6.171.176-6.699.259a134.437 134.437 0 0 1-.838-3.422 149.74 149.74 0 0 1-1.795-9.088l-1.852.068c0 .049 0 .093.026.147a149.004 149.004 0 0 0 2.041 9.205 85.96 85.96 0 0 0 1.047 3.774 37.38 37.38 0 0 0-3.664 1.775c-1.455-1.364-5.108-2.894-5.579-3.085a149.493 149.493 0 0 1 5.181-11.782l-2.03.074a154.168 154.168 0 0 0-3.35 7.895 129.989 129.989 0 0 0-1.376 3.676c-.524-.083-4.757-.733-6.704-.249-1.759.44-3.878 1.467-4.606 3.129a2.845 2.845 0 0 0-.004 2.464c.185.388.455.735.793 1.019.338.284.736.498 1.168.628 2.617.719 6.469-2.17 7.851-4.057.084-.108.816-1.408 1.266-2.235-.183.524-.371 1.027-.554 1.57-.372 1.065-.707 2.146-1.073 3.3-.157.562-.314 1.134-.471 1.711-.157.577-.272 1.188-.414 1.784a56.296 56.296 0 0 0-.717 4.263c-1.005-.298-4.579-1.32-6.4-1.134-1.822.186-4.072.89-5.061 2.444a2.907 2.907 0 0 0-.478 1.177c-.07.42-.044.848.076 1.257.119.41.33.791.617 1.12.287.328.646.597 1.051.787 2.476 1.086 6.746-1.232 8.411-2.899.104-.107 1.151-1.427 1.716-2.165-.11.865-.225 1.73-.309 2.615-.23 2.542-.382 5.123-.523 7.7-.047.787-.11 1.574-.167 2.361-.351-.112-4.575-1.413-6.616-1.203-1.81.181-4.066.89-5.06 2.445a2.923 2.923 0 0 0-.479 1.177c-.069.419-.043.848.077 1.257.119.409.329.791.617 1.119.287.329.645.597 1.051.788 2.476 1.08 6.746-1.232 8.41-2.899.126-.127 1.633-2.034 1.994-2.537-.125 1.73-.267 3.456-.481 5.152a50.607 50.607 0 0 1-1.303 6.801c-.163-.054-4.559-1.428-6.652-1.213-1.811.181-4.072.89-5.061 2.445a2.905 2.905 0 0 0-.478 1.178c-.07.42-.044.848.076 1.258.119.41.329.791.617 1.12.287.329.646.598 1.052.79 2.475 1.08 6.746-1.232 8.41-2.904.11-.108 1.256-1.56 1.79-2.264l.141.064a37.342 37.342 0 0 1-2.617 6.507 44.203 44.203 0 0 1-1.821 3.27c-.79-.332-4.428-1.823-6.327-1.828-1.9-.005-4.151.489-5.318 1.907-.287.328-.498.71-.617 1.12-.119.41-.144.838-.073 1.258.071.419.235.82.483 1.176s.574.659.956.889c2.334 1.33 6.845-.528 8.698-2.019a46.005 46.005 0 0 0 1.69-1.696c-.293.464-.581.948-.874 1.388-1.046 1.648-2.172 3.095-3.14 4.371-.565.723-1.094 1.364-1.57 1.955-.958.049-4.825.299-6.484 1.1-1.659.802-3.454 2.2-3.779 3.975a2.846 2.846 0 0 0-.001 1.249c.093.412.277.802.54 1.143.263.342.599.629.988.843.388.213.82.348 1.268.397Z" fill="#275F7A"/>
  <g opacity=".2" stroke="#000" stroke-linecap="round" stroke-linejoin="round">
    <path opacity=".2" d="M188.535 7.435h-.78"/>
    <path opacity=".2" d="M186.185 7.474c-5.72.298-20.547 2.361-29.533 15.336-10.074 14.549-3.825 39.784-4.49 56.103-.863 21.163-5.841 45.372-25.985 58.068-22.478 14.177-52.278 11.21-77 19.868-32.915 11.527-38.06 41.774-27.257 57.144 19.264 27.426 61.264 9.288 78.618-9.465 7.573-8.188 13.644-18.479 22.588-25.421 7.694-5.969 17.679-8.687 27.356-10.266 24.729-4.058 51.116-8.155 73.49-19.36 23.179-11.605 28.481-36.875 18.663-58.464-9.751-21.427-32.449-35.687-56.157-40.825-52.304-11.367-68.507 5.333-95.15-23.852" stroke-dasharray="3 3"/>
    <path opacity=".2" d="m90.82 25.772-.524-.562"/>
  </g>
  <path opacity=".2" d="M60.198 204.763a2.988 2.988 0 0 0-.731-1.902 3.365 3.365 0 0 0-1.828-1.08 3.543 3.543 0 0 0-2.153.197 3.246 3.246 0 0 0-1.568 1.392 3.245 3.245 0 0 0-1.569-1.392 3.543 3.543 0 0 0-2.152-.197c-.722.16-1.365.54-1.828 1.08-.464.54-.721 1.21-.731 1.902 0 1.589 1.297 3.207 2.585 4.146a39.815 39.815 0 0 0 3.663 2.263 38.544 38.544 0 0 0 3.664-2.263c1.23-.89 2.648-2.631 2.648-4.146ZM45.926 213.753a3.916 3.916 0 0 0-.944-2.529 4.419 4.419 0 0 0-2.42-1.438 4.656 4.656 0 0 0-2.853.273 4.251 4.251 0 0 0-2.057 1.866 4.252 4.252 0 0 0-2.058-1.866 4.657 4.657 0 0 0-2.852-.273 4.418 4.418 0 0 0-2.42 1.438 3.916 3.916 0 0 0-.944 2.529c0 2.088 1.7 4.205 3.39 5.442.849.62 4.711 3.035 4.831 2.967.11.068 3.978-2.347 4.826-2.967 1.601-1.174 3.501-3.452 3.501-5.442ZM168.831 217.596a3.909 3.909 0 0 0-.951-2.527 4.414 4.414 0 0 0-2.424-1.43 4.651 4.651 0 0 0-2.851.283 4.236 4.236 0 0 0-2.048 1.875 4.24 4.24 0 0 0-2.054-1.877 4.637 4.637 0 0 0-2.858-.278 4.407 4.407 0 0 0-2.424 1.442 3.913 3.913 0 0 0-.939 2.536c0 2.088 1.707 4.205 3.397 5.441.848.621 4.71 3.036 4.825 2.968.116.068 3.978-2.347 4.826-2.968 1.606-1.197 3.501-3.475 3.501-5.465ZM226.327 14.51a2.637 2.637 0 0 0-.632-1.71 2.977 2.977 0 0 0-1.632-.971 3.131 3.131 0 0 0-1.925.186 2.858 2.858 0 0 0-1.385 1.262 2.857 2.857 0 0 0-1.385-1.255 3.131 3.131 0 0 0-1.92-.183 2.972 2.972 0 0 0-1.628.968 2.63 2.63 0 0 0-.635 1.702c0 1.403 1.146 2.83 2.287 3.662a36.46 36.46 0 0 0 3.244 2 35.662 35.662 0 0 0 3.25-2c1.079-.792 2.361-2.322 2.361-3.662ZM22.145 205.697a2.63 2.63 0 0 0-.627-1.712 2.966 2.966 0 0 0-1.633-.975 3.127 3.127 0 0 0-1.926.187 2.855 2.855 0 0 0-1.383 1.268c-.296-.555-.784-1-1.385-1.263a3.128 3.128 0 0 0-1.925-.185 2.969 2.969 0 0 0-1.631.971 2.637 2.637 0 0 0-.633 1.709c0 1.403 1.152 2.825 2.288 3.661a34.518 34.518 0 0 0 3.25 1.995 34.533 34.533 0 0 0 3.25-1.995c1.099-.792 2.355-2.327 2.355-3.661ZM149.755 211.295a2.64 2.64 0 0 0-.633-1.709 2.977 2.977 0 0 0-1.631-.972 3.136 3.136 0 0 0-1.925.186 2.859 2.859 0 0 0-1.385 1.263 2.863 2.863 0 0 0-1.385-1.256 3.135 3.135 0 0 0-1.92-.183 2.975 2.975 0 0 0-1.628.968 2.637 2.637 0 0 0-.636 1.703c0 1.403 1.147 2.83 2.288 3.661a36.606 36.606 0 0 0 3.244 2 35.734 35.734 0 0 0 3.25-2c1.084-.787 2.361-2.322 2.361-3.661ZM131.966 17.046a2.632 2.632 0 0 0-.627-1.712 2.967 2.967 0 0 0-1.633-.974 3.124 3.124 0 0 0-1.926.187 2.853 2.853 0 0 0-1.383 1.267 2.85 2.85 0 0 0-1.382-1.267 3.127 3.127 0 0 0-1.927-.187 2.965 2.965 0 0 0-1.632.974 2.632 2.632 0 0 0-.627 1.712c0 1.403 1.146 2.826 2.282 3.662a36.996 36.996 0 0 0 3.25 1.985 35.461 35.461 0 0 0 3.25-1.995c1.078-.782 2.355-2.317 2.355-3.652ZM95.19 15.467a2.63 2.63 0 0 0-.63-1.71 2.966 2.966 0 0 0-1.632-.972 3.126 3.126 0 0 0-1.925.188c-.601.265-1.088.711-1.382 1.267-.296-.554-.783-.999-1.383-1.262a3.132 3.132 0 0 0-1.924-.187 2.97 2.97 0 0 0-1.632.97 2.635 2.635 0 0 0-.635 1.706c0 1.403 1.152 2.83 2.288 3.662a34.652 34.652 0 0 0 3.25 2 34.64 34.64 0 0 0 3.25-2c1.078-.787 2.355-2.303 2.355-3.662ZM209.019 5.406a4.105 4.105 0 0 0-.987-2.666 4.635 4.635 0 0 0-2.546-1.516 4.887 4.887 0 0 0-3.004.29 4.461 4.461 0 0 0-2.161 1.97 4.457 4.457 0 0 0-2.161-1.97 4.884 4.884 0 0 0-3.003-.29 4.638 4.638 0 0 0-2.547 1.516 4.116 4.116 0 0 0-.987 2.666c0 2.19 1.79 4.4 3.569 5.72.89.65 4.951 3.187 5.072 3.119.12.068 4.186-2.444 5.076-3.119 1.685-1.232 3.679-3.627 3.679-5.72Z" stroke="#000" stroke-linecap="round" stroke-linejoin="round"/>
  <path d="m226.217 197.982-78.231 2.122c-2.014.054-3.969-.641-5.434-1.933-1.465-1.292-2.321-3.074-2.38-4.955l-4.857-156.111a6.68 6.68 0 0 1 .493-2.732 7.05 7.05 0 0 1 1.575-2.347 7.61 7.61 0 0 1 2.416-1.606 8.052 8.052 0 0 1 2.89-.62l78.231-2.12a8.076 8.076 0 0 1 2.925.458c.934.331 1.788.831 2.514 1.471a7.134 7.134 0 0 1 1.719 2.258c.408.85.633 1.768.661 2.7l4.841 156.112c.058 1.88-.684 3.704-2.065 5.074-1.38 1.369-3.286 2.171-5.298 2.229Z" fill="#022C40" stroke="#022C40" stroke-linecap="round" stroke-linejoin="round"/>
  <path d="m222.59 197.983-78.221 2.121a8.079 8.079 0 0 1-2.924-.46 7.71 7.71 0 0 1-2.513-1.471 7.124 7.124 0 0 1-1.718-2.257 6.725 6.725 0 0 1-.664-2.7l-4.856-156.111c-.058-1.883.687-3.71 2.071-5.08 1.383-1.369 3.293-2.169 5.308-2.224l78.231-2.122a8.073 8.073 0 0 1 2.923.461 7.688 7.688 0 0 1 2.512 1.471 7.13 7.13 0 0 1 1.718 2.257c.408.85.632 1.768.661 2.7l4.857 156.111a6.674 6.674 0 0 1-.493 2.734 7.03 7.03 0 0 1-1.577 2.349 7.605 7.605 0 0 1-2.421 1.605 8.056 8.056 0 0 1-2.894.616Z" fill="#fff" stroke="#022C40" stroke-miterlimit="10"/>
  <path d="M186.149 193.426a2.848 2.848 0 0 0-.588-1.633 3.167 3.167 0 0 0-1.46-1.052 3.398 3.398 0 0 0-1.84-.118 3.243 3.243 0 0 0-1.6.857 2.9 2.9 0 0 0-.82 1.543 2.786 2.786 0 0 0 .234 1.708c.258.535.679.987 1.212 1.299a3.342 3.342 0 0 0 1.779.451 3.354 3.354 0 0 0 1.209-.259 3.16 3.16 0 0 0 1.01-.672c.287-.283.51-.617.658-.981.148-.365.218-.753.206-1.143v0Z" stroke="#fff" stroke-linecap="round" stroke-linejoin="round"/>
  <path d="m221.098 39.166-85.114 2.304 4.611 148.633 85.114-2.304-4.611-148.633Z" fill="#fff" stroke="#022C40" stroke-linecap="round" stroke-linejoin="round"/>
  <path d="m218.25 40.785-7.057.191.112 3.616 7.058-.191-.113-3.616Z" stroke="#022C40" stroke-width=".821" stroke-linecap="round" stroke-linejoin="round"/>
  <path d="m216.697 40.827-5.503.15.112 3.615 5.503-.15-.112-3.615ZM219.262 41.77l-.994.027.049 1.593.994-.027-.049-1.593Z" fill="#022C40" stroke="#022C40" stroke-width=".725" stroke-linecap="round" stroke-linejoin="round"/>
  <path d="m139.277 44.041-1.292.035.064 2.072 1.292-.035-.064-2.072ZM141.292 43.244 140 43.28l.087 2.8 1.293-.035-.088-2.8ZM143.299 42.33l-1.292.035.114 3.659 1.292-.035-.114-3.66Z" fill="#022C40" stroke="#022C40" stroke-width=".883" stroke-linecap="round" stroke-linejoin="round"/>
  <path d="m107.865 201.033-78.142-4.072a8.038 8.038 0 0 1-2.872-.691 7.574 7.574 0 0 1-2.37-1.665 7.015 7.015 0 0 1-1.508-2.386 6.668 6.668 0 0 1-.415-2.743l9.316-155.95c.116-1.876 1.024-3.633 2.525-4.885 1.502-1.252 3.473-1.897 5.482-1.793l78.148 4.073c2.012.106 3.897.954 5.24 2.357 1.344 1.403 2.036 3.248 1.924 5.127l-9.315 155.95c-.118 1.877-1.027 3.634-2.529 4.886-1.502 1.252-3.474 1.896-5.484 1.792Z" fill="#022C40" stroke="#022C40" stroke-linecap="round" stroke-linejoin="round"/>
  <path d="m110.529 201.033-78.142-4.072a8.038 8.038 0 0 1-2.872-.691 7.574 7.574 0 0 1-2.37-1.665 7.014 7.014 0 0 1-1.508-2.386 6.668 6.668 0 0 1-.415-2.743l9.316-155.95c.117-1.878 1.027-3.636 2.53-4.888 1.504-1.252 3.477-1.895 5.488-1.79l78.137 4.072c2.013.105 3.899.952 5.244 2.356 1.344 1.403 2.037 3.248 1.926 5.129l-9.316 155.95c-.116 1.878-1.026 3.637-2.529 4.889-1.504 1.252-3.478 1.896-5.489 1.789Z" fill="#fff" stroke="#022C40" stroke-miterlimit="10"/>
  <path d="M74.621 193.612a2.812 2.812 0 0 0-.435-1.674 3.106 3.106 0 0 0-1.358-1.166 3.374 3.374 0 0 0-1.822-.265 3.28 3.28 0 0 0-1.673.726 2.94 2.94 0 0 0-.96 1.471 2.784 2.784 0 0 0 .078 1.722 2.989 2.989 0 0 0 1.089 1.391 3.317 3.317 0 0 0 1.732.591 3.319 3.319 0 0 0 2.295-.75 2.894 2.894 0 0 0 1.055-2.046v0Z" stroke="#fff" stroke-linecap="round" stroke-linejoin="round"/>
  <path d="M123.443 42.647 38.425 38.22l-8.858 148.464 85.018 4.427 8.858-148.465Z" fill="#FAFAFA" stroke="#022C40" stroke-linecap="round" stroke-linejoin="round"/>
  <path d="m120.462 44.033-7.049-.367-.216 3.611 7.049.367.216-3.611Z" stroke="#022C40" stroke-width=".821" stroke-linecap="round" stroke-linejoin="round"/>
  <path d="m118.907 43.957-5.497-.286-.216 3.611 5.497.286.216-3.61ZM121.376 45.099l-.992-.052-.095 1.59.993.052.094-1.59Z" fill="#022C40" stroke="#022C40" stroke-width=".725" stroke-linecap="round" stroke-linejoin="round"/>
  <path d="m41.47 41.048-1.29-.067-.124 2.069 1.29.067.124-2.069ZM43.54 40.428l-1.29-.068-.168 2.797 1.291.067.167-2.796ZM45.618 39.678l-1.29-.068-.22 3.655 1.291.068.22-3.655Z" fill="#022C40" stroke="#022C40" stroke-width=".883" stroke-linecap="round" stroke-linejoin="round"/>
  <path d="M195.606 77.563s4.522 5.26 5.364 10.15c.843 4.888-2.868 7.362-4.187 9.22a12.478 12.478 0 0 0-2.229 5.842c-.173 1.828 2.59 2.072 2.59 2.072s-1.899 1.658-6.458 2.533c-4.558.875-7.185-2.484-7.185-2.484s4.589-3.422 5.537-6.257c.947-2.836 1.277-10.638.989-12.452-.288-1.814-1.152-3.823-1.167-4.36-.016-.538 1.282-5.936 6.746-4.264ZM206.832 188.655c-.565-3.965-2.408-15.155-2.408-15.155s-13.774-5.246-27.837-4.4c-14.062.846-16.8 3.525-16.8 3.525l-2.47 17.218h5.234l44.281-1.188Z" fill="#022C40" stroke="#022C40" stroke-linecap="round" stroke-linejoin="round"/>
  <path d="m196.762 146.04-.586-3.681 13.963.361s-11.268-15.365-12.356-19.921c-1.089-4.556-4.736-9.777-8.306-12.491-3.569-2.713-9.263-2.703-9.263-2.703l-2.999.23.822-4.166-9.735-7.567-.267 1.632s-1.12 4.762-1.669 7.436c-.55 2.674-1.628 3.593-1.628 3.593s-5.856-5.162-9.52-5.802c-3.663-.641-8.488 1.857-9.158 5.719-.67 3.862 2.616 36.627 2.983 38.983.366 2.356 5.092 12.104 5.976 15.038.885 2.933 4.768 10.662 4.768 10.662s7.62 5.71 20.458 6.394c12.838.685 24.99-5.705 24.99-5.705s-4.186-12.603-5.275-17.008c-1.089-4.404-3.198-11.004-3.198-11.004Zm-33.494 12.295s-2.167-8.663-2.575-11.464c-.409-2.801-1.126-10.755-1.126-10.755l6.228 11.953-2.527 10.266Z" fill="#275F7A" stroke="#022C40" stroke-linecap="round" stroke-linejoin="round"/>
  <path d="m155.972 127.306-.827-2.019M159.573 136.111l-2.35-5.754M193.758 145.238s-3.548 8.076-8.112 14.119M179.732 170.821c-.434.415-.868.806-1.287 1.158M191.848 155.045s-5.296 8.452-10.467 14.069" stroke="#022C40" stroke-linecap="round" stroke-linejoin="round"/>
  <path d="m180.198 107.605-2.999.23.822-4.165-9.734-7.568-.267 1.633s-1.12 4.761-1.67 7.435c-.549 2.675-1.627 3.594-1.627 3.594a43.472 43.472 0 0 0-5.956-4.332c.801 2.445 3.867 10.853 8.944 13.86 5.966 3.534 12.362.552 13.67-3.178a31.306 31.306 0 0 0 1.413-7.289 19.951 19.951 0 0 0-2.596-.22Z" fill="#fff" stroke="#022C40" stroke-linecap="round" stroke-linejoin="round"/>
  <path d="m176.257 107.375-.261 3.719 3.114-3.269-2.853-.45Z" fill="#022C40" stroke="#022C40" stroke-linecap="round" stroke-linejoin="round"/>
  <path d="M189.231 122.735s.77-5.788.702-8.002c-.068-2.215-1.497-7.5-2.178-8.961-.68-1.462-4.233-3.877-4.511-2.538-.277 1.34.309 4.889.335 5.608.026.718-.356 3.857-.356 3.857s.068-2.811-1.235-3.96c-1.303-1.149-2.24-.826-2.214-.088v.738s1.497 2.327 1.57 4.248c.074 1.922-.136 5.769-.099 6.952.037 1.183 2.507 4.219 3.004 4.943.497.723 5.092 5.925 5.092 5.925l4.328-3.369-4.438-5.353Z" fill="#fff" stroke="#022C40" stroke-linecap="round" stroke-linejoin="round"/>
  <path d="M189.383 112.234s-2.711-5.69-3.805-5.221c-1.094.469 1.57 5.28 1.57 5.28l.524 1.173s-2.094 3.911-2.376 5.089c-.283 1.179-.246 2.225.083 2.66" fill="#fff"/>
  <path d="M189.383 112.234s-2.711-5.69-3.805-5.221c-1.094.469 1.57 5.28 1.57 5.28l.524 1.173s-2.094 3.911-2.376 5.089c-.283 1.179-.246 2.225.083 2.66" stroke="#022C40" stroke-linecap="round" stroke-linejoin="round"/>
  <path d="m191.67 124.74-8.07 10.266s5.83 4.277 9.237 6.991c3.407 2.713 10.567 8.882 12.959 9.406 2.391.523 6.18.278 6.364-4.014.183-4.292-1.434-5.431-4.219-8.311-2.784-2.879-16.271-14.338-16.271-14.338Z" fill="#275F7A" stroke="#022C40" stroke-linecap="round" stroke-linejoin="round"/>
  <path d="M192.45 83.464a12.622 12.622 0 0 1 2.23 6.845c-.027 2.302-2.643 6.355-3.235 8.384-.591 2.029-2.522 4.888-8.012 6.907-4.187 1.536-6.448 3.056-8.296 1.57-1.847-1.486-6.615-8.072-6.615-8.072s9.358-8.931 12.393-11.62c3.036-2.689 7.552-5.285 11.535-4.014Z" fill="#fff" stroke="#022C40" stroke-linecap="round" stroke-linejoin="round"/>
  <path d="M186.081 99.353c-.412.265-.884.44-1.379.509a3.513 3.513 0 0 1-1.479-.109M178.858 99.548s.403 1.813 3.297 2.698" stroke="#022C40" stroke-linecap="round" stroke-linejoin="round"/>
  <path d="M181.098 91.755a.853.853 0 0 0 .151.469c.097.14.234.251.395.322a1.006 1.006 0 0 0 .999-.116.878.878 0 0 0 .299-.401.824.824 0 0 0 .025-.489.87.87 0 0 0-.257-.426.968.968 0 0 0-.46-.234 1.118 1.118 0 0 0-.771.214 1.003 1.003 0 0 0-.261.295.942.942 0 0 0-.12.366Z" fill="#022C40"/>
  <path d="M184.82 91.902a1.21 1.21 0 0 0-.083-.58 1.27 1.27 0 0 0-.348-.484 1.395 1.395 0 0 0-.542-.292 1.468 1.468 0 0 0-.624-.037" stroke="#022C40" stroke-linecap="round" stroke-linejoin="round"/>
  <path d="M189.095 94.278c.002.137.044.27.124.386a.762.762 0 0 0 .324.266.83.83 0 0 0 .824-.094.733.733 0 0 0 .246-.33.683.683 0 0 0 .021-.403.723.723 0 0 0-.212-.351.798.798 0 0 0-.38-.192.917.917 0 0 0-.63.179.806.806 0 0 0-.317.539Z" fill="#022C40"/>
  <path d="M191.885 94.6a1.214 1.214 0 0 0-.082-.58 1.287 1.287 0 0 0-.35-.486 1.403 1.403 0 0 0-.544-.291 1.471 1.471 0 0 0-.626-.036M187.394 89.668a5.435 5.435 0 0 0-2.684-1.212 4.81 4.81 0 0 0-2.795.625M190.875 91.907s1.313.108 1.905 1.818" stroke="#022C40" stroke-linecap="round" stroke-linejoin="round"/>
  <path d="M196.862 79.284s-5.94 5.31-9.29 7.769c-3.349 2.459-4.71 2.072-7.85 5.915-3.14 3.843-6.034 7.123-10.305 8.629-4.27 1.505-9.535 0-11.514-1.496-1.978-1.496-2.465-2.714-2.465-2.714s3.099-.097 2.889-2.864c-.905-11.763-.958-13.273.115-17.057 1.073-3.784 7.422-8.751 16.811-8.585 9.389.166 17.757 5.779 19.578 6.844 1.822 1.066 2.732 2.01 2.031 3.56Z" fill="#022C40" stroke="#022C40" stroke-linecap="round" stroke-linejoin="round"/>
  <path d="M162.749 94.615a4.08 4.08 0 0 1-1.59-.838 3.735 3.735 0 0 1-1.026-1.41M188.609 80.022c-3.575 2.738-8.981 7.025-12.561 10.58-2.615 2.656-6.238 4.252-10.096 4.448M192.288 77.265s-.524.377-1.382 1.022M167.92 88.857c-.75.392-1.547.699-2.376.914-4.49 1.012-5.856-4.508-5.856-4.508M182.354 79.314a143.52 143.52 0 0 1-11.717 8.061M161.023 82.114s1.229 1.3 4.788.978c3.559-.323 7.505-3.539 7.505-3.539" stroke="#696969" stroke-linecap="round" stroke-linejoin="round"/>
  <path d="m163.273 158.335-3.376 13.547" stroke="#022C40" stroke-linecap="round" stroke-linejoin="round"/>
  <path d="m95.76 190.073 3.501-25.011s-2.172-3.422-10.938-3.911c-8.766-.489-29.68 7.333-29.68 7.333l-5.17 19.369 42.287 2.22Z" fill="#022C40" stroke="#022C40" stroke-linecap="round" stroke-linejoin="round"/>
  <path d="M65.798 96.512 48.16 89.375l14.931-11.21-1.905-3.877S43.99 79.612 40.07 81.621c-3.92 2.01-11.959 5.114-12.064 6.903-.104 1.79 19.836 18.127 25.121 20.846 5.286 2.718 12.163 7.298 12.163 7.298s-2.093 27.421-2.193 28.751c-.1 1.33-7.74 30.593-7.793 31.478-.052.885 3.413 2.039 9.128 1.897 5.715-.142 13.706-6.614 15.7-8.286 1.994-1.672 6.872-3.637 9.018-3.75 2.146-.112 10.085-1.696 10.085-1.696l11.828-34.906s4.762-19.955.9-22.605c-3.862-2.65-19.887-5.475-19.887-5.475l-17.48-1.799-8.798-3.765Z" fill="#275F7A" stroke="#022C40" stroke-linecap="round" stroke-linejoin="round"/>
  <path d="M75.396 166.18c1.822-1.231 4.187-2.502 6.532-2.839a77.91 77.91 0 0 1 9.823-.689" fill="#275F7A"/>
  <path d="M75.396 166.18c1.822-1.231 4.187-2.502 6.532-2.839a77.91 77.91 0 0 1 9.823-.689" stroke="#022C40" stroke-linecap="round" stroke-linejoin="round"/>
  <path d="M72.052 168.865s.387-.376 1.047-.938l-1.047.938Z" fill="#275F7A"/>
  <path d="M72.052 168.865s.387-.376 1.047-.938" stroke="#022C40" stroke-linecap="round" stroke-linejoin="round"/>
  <path d="M78.845 161.757c-.788.205-1.554.48-2.287.821l2.287-.821Z" fill="#275F7A"/>
  <path d="M78.845 161.757c-.788.205-1.554.48-2.287.821" stroke="#022C40" stroke-linecap="round" stroke-linejoin="round"/>
  <path d="M89.275 161.317a32.725 32.725 0 0 0-7.991-.029l7.991.029Z" fill="#275F7A"/>
  <path d="M89.275 161.317a32.725 32.725 0 0 0-7.991-.029M61.915 105.258l-.566-1.897M65.306 116.669l-2.78-9.353M48.16 89.35a23.795 23.795 0 0 1-7.326-.381" stroke="#022C40" stroke-linecap="round" stroke-linejoin="round"/>
  <path d="m100.727 125.038 8.242 20.772s-10.168 15.013-11.948 16.915a46.9 46.9 0 0 1-4.747 4.185l-3.077-.162c-1.424-.073-4.935-.924-5.725.367s-.65 2.855-3.292 3.383c-2.643.528-.32 1.315 1.34 1.403 1.658.088 3.438-1.819 4.144-1.784l1.66.088 7.384 7.709 3.517-7.142s15.355-14.3 17.883-16.832c2.528-2.532 6.61-7.201 6.61-7.201s-7.416-31.019-8.159-34.832c-.743-3.813-2.947-6.356-10.122-5.637" fill="#275F7A"/>
  <path d="m100.727 125.038 8.242 20.772s-10.168 15.013-11.948 16.915a46.9 46.9 0 0 1-4.747 4.185l-3.077-.162c-1.424-.073-4.935-.924-5.725.367s-.65 2.855-3.292 3.383c-2.643.528-.32 1.315 1.34 1.403 1.658.088 3.438-1.819 4.144-1.784l1.66.088 7.384 7.709 3.517-7.142s15.355-14.3 17.883-16.832c2.528-2.532 6.61-7.201 6.61-7.201s-7.416-31.019-8.159-34.832c-.743-3.813-2.947-6.356-10.122-5.637" stroke="#022C40" stroke-linecap="round" stroke-linejoin="round"/>
  <path d="M94.163 165.379a46.02 46.02 0 0 1-1.91 1.54l-3.077-.161c-1.424-.073-4.935-.924-5.726.367-.79 1.29-.648 2.855-3.291 3.383s-.32 1.315 1.34 1.403c1.658.088 3.438-1.819 4.144-1.785l1.66.088 7.384 7.71 3.517-7.143.947-.884-4.987-4.518ZM81.478 117.113l-3.988-3.886-5.433 3.788 6.542-10.569 3.727 1.247-.848 9.42Z" fill="#fff" stroke="#022C40" stroke-linecap="round" stroke-linejoin="round"/>
  <path d="M77.17 106.779s2.512 5.123 3.224 7.264c.712 2.141 1.083 3.08 1.083 3.08l11.1-16.245s-3.014-6.067-3.323-7.925a7.65 7.65 0 0 0-.957-2.796s-.46 5.378-4.642 9.352a54.843 54.843 0 0 0-6.485 7.27Z" fill="#fff" stroke="#022C40" stroke-linecap="round" stroke-linejoin="round"/>
  <path d="M77.17 106.778s.937 1.912 1.832 3.911l4.925-8.374-1.764-1.32a51.528 51.528 0 0 0-4.993 5.783Z" fill="#022C40" stroke="#022C40" stroke-linecap="round" stroke-linejoin="round"/>
  <path d="m82.744 112.445-1.267 4.668 4.716-3.568-3.449-1.1Z" fill="#fff" stroke="#022C40" stroke-linecap="round" stroke-linejoin="round"/>
  <path d="m92.044 98.082-9.3 14.363 5.904 7.142 7.489-16.265-4.093-5.24ZM60.172 84.882s2.47 8.31 3.559 11.396c1.088 3.084 3.045 5.695 5.913 7.294 2.868 1.598 4.004 3.911 7.238 4.072 3.235.161 6.411-3.359 7.197-4.639.785-1.281 4.527-4.89 4.83-7.656.304-2.767.471-5.515.471-5.515a7.512 7.512 0 0 0 1.672-2.855 7.162 7.162 0 0 0 .249-3.246c-.633-3.593-2.832-4.63-2.832-4.63s-2.407-6.98-9.943-8.427c-7.537-1.448-17.271 5.294-17.684 7.777a47.004 47.004 0 0 0-.524 5.91l-.146.52Z" fill="#fff" stroke="#022C40" stroke-linecap="round" stroke-linejoin="round"/>
  <path d="M67.865 92.372s-.874 2.855-.236 3.94c.639 1.085 2.544 0 3.418-.489M68.613 98.737s1.91 1.154 4.841-.67c1.755-1.096 3.087-2.69 3.8-4.546" stroke="#022C40" stroke-linecap="round" stroke-linejoin="round"/>
  <path d="M77.06 88.123a.973.973 0 0 1-.19.533 1.076 1.076 0 0 1-.465.357 1.16 1.16 0 0 1-.597.072 1.125 1.125 0 0 1-.546-.235 1.014 1.014 0 0 1-.33-.47.953.953 0 0 1-.01-.562c.052-.185.16-.352.31-.482.149-.13.335-.218.536-.254.318-.017.63.083.871.277s.392.468.421.764Z" fill="#022C40"/>
  <path d="M72.795 88.2c-.018-.225.02-.451.11-.661.091-.21.233-.397.415-.547.181-.15.397-.26.632-.318.234-.06.479-.067.717-.022" stroke="#022C40" stroke-linecap="round" stroke-linejoin="round"/>
  <path d="M67.828 90.783a.798.798 0 0 1-.153.442.885.885 0 0 1-.383.297.953.953 0 0 1-.946-.136.832.832 0 0 1-.27-.39.783.783 0 0 1-.004-.465.83.83 0 0 1 .262-.396.923.923 0 0 1 .448-.203c.258-.01.51.071.705.23a.92.92 0 0 1 .341.62Z" fill="#022C40"/>
  <path d="M64.61 91.07a1.38 1.38 0 0 1 .11-.663 1.47 1.47 0 0 1 .416-.548c.182-.15.399-.259.634-.318.234-.058.48-.065.719-.02M62.757 89.667s.12-.899 1.654-1.661c1.533-.763 1.983-.802 1.983-.802M69.917 85.556a6.412 6.412 0 0 1 2.826-.875c1.17-.071 2.345.051 3.47.362" stroke="#022C40" stroke-linecap="round" stroke-linejoin="round"/>
  <path d="M68.132 63.425s-4.218-1.427-7.516-.928c-3.297.498-10 5.9-8.96 8.36 1.042 2.458 5.47.42 5.082 1.872-.387 1.452-5.85 3.573-6.667 7.274-.817 3.7 1.601 7.978 5.595 8.184 3.993.205 6.023-6.356 6.505-4.473.481 1.882 2.25 2.121 5.516-.382s6.364-7.162 7.327-5.905c.963 1.256 1.047 5.27 2.052 5.455 1.004.186 2.726-.928 3.872-.2 1.147.728 1.88 3.31 2.8 2.82.921-.488.55-1.71 1.047-2.751.497-1.042.565-3.144 2.868-3.33.884-.068 1.34-.063 1.34-.063s1.737-6.732-.817-11.142c-2.554-4.41-11.513-5.954-13.607-5.529a24.3 24.3 0 0 0-3.621 1.017l-2.816-.279Z" fill="#022C40" stroke="#022C40" stroke-linecap="round" stroke-linejoin="round"/>
  <path d="M86.224 74.674c.637.254 1.22.611 1.722 1.056M76.7 76.468s3.971-2.59 7.766-2.219M68.912 72.685c-2.711 1.134-5.956 3.084-6.888 6.145-1.68 5.534 6.375.977 7.657-.49 1.282-1.466-2.758-1.7-3.789-.42M72.952 71.39c-.861.193-1.709.437-2.538.727M74.334 66.926a30.002 30.002 0 0 0-7.437 2.141c-5.145 2.405-12.404 8.257-13.382 12.657M79.19 66.374s-1.392.053-3.39.327" stroke="#696969" stroke-linecap="round" stroke-linejoin="round"/>
  <path d="M147.682 47.958h21.981c.972 0 1.903.36 2.59 1.002a3.312 3.312 0 0 1 1.073 2.42v11.082c0 .908-.386 1.778-1.073 2.42a3.797 3.797 0 0 1-2.59 1.002h-15.701l.859 5.867-5.318-5.867h-1.837c-.971 0-1.903-.36-2.59-1.002a3.312 3.312 0 0 1-1.073-2.42V51.38c0-.451.095-.897.28-1.313.185-.416.456-.794.798-1.112.342-.318.748-.57 1.194-.741a3.89 3.89 0 0 1 1.407-.256Z" fill="#fff" stroke="#022C40" stroke-linecap="round" stroke-linejoin="round"/>
  <path d="M155.858 59.936c2.019-1.762 2.127-4.72.241-6.605-1.887-1.887-5.053-1.987-7.072-.225s-2.127 4.72-.241 6.605c1.887 1.887 5.053 1.987 7.072.225Z" fill="#275F7A" stroke="#022C40" stroke-linecap="round" stroke-linejoin="round"/>
  <path d="M150.44 54.895a2.174 2.174 0 0 1 1.091-.428c.4-.041.804.026 1.165.193M155.197 54.895a1.117 1.117 0 0 1 .946-.146c.159.047.303.13.421.24.118.11.205.246.256.394M151.445 57.114c.249.273.556.494.902.65a2.936 2.936 0 0 0 2.227.072c.357-.133.679-.334.948-.59" stroke="#022C40" stroke-linecap="round" stroke-linejoin="round"/>
  <path opacity=".2" d="M151.445 56.708c0-.243-.077-.48-.221-.682a1.303 1.303 0 0 0-.59-.451 1.399 1.399 0 0 0-.759-.07 1.346 1.346 0 0 0-.673.335 1.21 1.21 0 0 0-.359.629c-.051.238-.025.484.075.708.099.225.267.416.483.551.216.135.47.207.73.207.349 0 .683-.13.929-.36.247-.23.385-.542.385-.867ZM157.197 56.967a1.03 1.03 0 0 0-.198-.599 1.143 1.143 0 0 0-.52-.395 1.234 1.234 0 0 0-.668-.06 1.187 1.187 0 0 0-.591.297c-.161.151-.27.344-.315.553-.044.21-.021.426.067.623.088.197.236.366.426.484a1.216 1.216 0 0 0 1.086.1c.141-.055.268-.135.376-.236.107-.1.192-.22.25-.352.058-.132.087-.273.087-.415Z" fill="#000"/>
  <path d="M167.573 60.089c2.097-1.682 2.337-4.633.537-6.591-1.8-1.958-4.959-2.183-7.055-.501-2.097 1.681-2.337 4.632-.537 6.59 1.8 1.958 4.959 2.183 7.055.502Z" fill="#275F7A" stroke="#022C40" stroke-linecap="round" stroke-linejoin="round"/>
  <path d="M162.305 54.895a2.17 2.17 0 0 1 1.088-.426c.399-.042.802.024 1.162.191M167.057 54.895c.134-.094.29-.157.455-.183.165-.026.335-.015.494.033.16.048.304.131.422.242a.967.967 0 0 1 .256.396M163.304 57.114c.249.273.556.494.902.65a2.936 2.936 0 0 0 2.227.072c.357-.133.68-.334.948-.59" stroke="#022C40" stroke-linecap="round" stroke-linejoin="round"/>
  <path opacity=".2" d="M163.304 56.708c0-.243-.077-.48-.221-.682a1.303 1.303 0 0 0-.59-.451 1.399 1.399 0 0 0-.759-.07 1.339 1.339 0 0 0-.672.335c-.184.172-.309.39-.36.629-.051.238-.025.484.075.708.099.225.268.416.484.551.216.135.47.207.73.207.348 0 .682-.13.928-.36.247-.23.385-.542.385-.867ZM169.061 56.967a1.035 1.035 0 0 0-.197-.599 1.145 1.145 0 0 0-.521-.395 1.23 1.23 0 0 0-.667-.06c-.224.042-.43.146-.591.297a1.06 1.06 0 0 0-.315.553c-.045.21-.021.426.066.623.088.197.236.366.426.484a1.216 1.216 0 0 0 1.086.1c.141-.055.269-.135.376-.236a1.026 1.026 0 0 0 .337-.767Z" fill="#000"/>
  <path d="M109.022 47.958H87.041c-.972 0-1.904.36-2.59 1.002a3.312 3.312 0 0 0-1.074 2.42v11.082c0 .908.386 1.778 1.073 2.42a3.799 3.799 0 0 0 2.59 1.002h15.701l-.858 5.867 5.317-5.867h1.822c.971 0 1.903-.36 2.59-1.002a3.312 3.312 0 0 0 1.073-2.42V51.38c0-.908-.386-1.778-1.073-2.42a3.799 3.799 0 0 0-2.59-1.002Z" fill="#fff" stroke="#022C40" stroke-linecap="round" stroke-linejoin="round"/>
  <path d="M106.159 54.758a3.916 3.916 0 0 0-.944-2.53 4.417 4.417 0 0 0-2.42-1.437 4.652 4.652 0 0 0-2.853.273 4.25 4.25 0 0 0-2.057 1.865 4.25 4.25 0 0 0-2.058-1.865 4.653 4.653 0 0 0-2.852-.273 4.415 4.415 0 0 0-2.42 1.438c-.61.72-.943 1.61-.945 2.529 0 2.082 1.707 4.204 3.397 5.44.848.622 4.71 3.032 4.825 2.968.116.064 3.978-2.346 4.826-2.967 1.606-1.173 3.501-3.451 3.501-5.441Z" fill="#275F7A" stroke="#022C40" stroke-linecap="round" stroke-linejoin="round"/>
</svg>
