<svg width="250" height="229" fill="none" xmlns="http://www.w3.org/2000/svg">
  <path d="M17.659 129.406V28.268h8.498M17.665 145.94v-3.686M48.005 28.268h87.656v130.619H17.659M37.256 28.268h7.703" stroke="#022C40" stroke-linecap="round" stroke-linejoin="round"/>
  <path d="M131.223 32.755H22.097v121.65h109.126V32.755Z" stroke="#022C40" stroke-linecap="round" stroke-linejoin="round"/>
  <path d="M126.149 41.29v47.313H27.171V84.29M27.17 74.167V37.45h98.979M27.177 80.968V76.77M109.438 93.577h21.785M101.689 93.577h3.081M22.097 93.577h75.91" stroke="#022C40" stroke-linecap="round" stroke-linejoin="round"/>
  <path d="M71.176 88.602V86.33H80.3v1.293h-3.636v.98M22.286 134.351s1.512 1.16 2.577 8.175c0 0 1.833-11.207 4.055-11.381 2.222-.174 1.752 7.294 1.752 7.294s.367-3.682 2.108-3.514c1.74.168 0 7.601 0 7.601s2.09-5.798 4.066-5.693c1.976.104-1.312 10.499-1.312 10.499s5.074-3.722 7.13-1.901c2.056 1.82-1.145 6.412-1.145 6.412s7.279-1.6 8.407 2.719M49.941 150.376s3.173-2.105 5.664-1.125c0 0-1.586-2.447 0-3.942 1.586-1.496 3.625 3.942 3.625 3.942s.23-9.108 3.402-8.65c3.173.458 0 8.65 0 8.65s5.664-5.079 7.021-3.31c1.357 1.768-.905 4.435-.905 4.435s3.396-1.102 5.887 1.467c0 0 3.797-3.925 8.018-4.488 0 0-2.806-8.244-1.443-9.908 1.363-1.664 3.825 7.195 3.825 7.195s1.083-5.763 4.628-6.203c0 0-2.955-1.63-2.08-4.088.877-2.458 4.955.58 4.955.58s-1.678-4.331.973-5.519c2.652-1.189 3.757 3.623 3.757 3.623s.739-5.044 3.854-4.765c3.116.278 2.108 6.087 2.108 6.087s2.938-4.638 4.513-4.145c3.144.939 2.187 8.232 2.187 8.232s4.393-3.09 5.521-1.669c1.22 1.536-4.582 5.484-4.582 5.484s4.359.487 7.067 3.056" stroke="#022C40" stroke-linecap="round" stroke-linejoin="round"/>
  <path d="M131.223 136.015s-.498-4.638-5.074-4.87c-4.576-.231 1.26 10.146 1.26 10.146s-3.774-3.16-5.126-2.186c-1.351.974 3.866 6.326 3.866 6.326s-2.503-2.319-5.154-1.618c-2.652.702 1.506 8.175 1.506 8.175a18.642 18.642 0 0 0-11.62 1.374M176.74 198.224v-57.791h64.279" stroke="#022C40" stroke-linecap="round" stroke-linejoin="round"/>
  <path d="M238.682 146.411h-56.77v53.83" stroke="#022C40" stroke-linecap="round" stroke-linejoin="round"/>
  <path d="M193.274 175.769v-23.926h3.716v4.934h4.96v-2.215h4.433v2.684h5.984v-5.403h6.122v3.629h3.299v-2.11h5.91v14.094M221.788 155.472v20.297M218.965 158.51v3.623M218.965 164.731v14.882M212.367 157.252v13.369M212.596 175.027v4.163M206.383 157.252v7.479M206.383 169.329v15.757M201.95 156.777v18.575M196.99 156.777v7.026M196.99 167.456v16.703M193.274 179.19v7.542M185.605 186.733h45.117M221.788 186.732v-4.829M212.596 183.179v3.327M228.202 159.56h4.375M185.777 190.942h41.921M194.774 203.215v-5.623h7.766v3.623h6.248v7.067h3.579v-10.476h7.932v2.435h4.874M220.299 200.241v6.029M212.596 210.833v4.058M208.788 208.282v5.346M202.54 201.215v3.066" stroke="#022C40" stroke-linecap="round" stroke-linejoin="round"/>
  <path d="M238.877 17.079H101.638v95.99h137.239v-95.99Z" fill="#275F7A" stroke="#022C40" stroke-linecap="round" stroke-linejoin="round"/>
  <path d="M238.877 17.079H101.638v9.49h137.239v-9.49Z" fill="#022C40"/>
  <path d="m157.234 82.893-3.218-4.534a28.55 28.55 0 0 0-.143-2.835c-.12-.423-2.073-3.536-2.119-4.273a5.024 5.024 0 0 0-.132-1.043s-1.002.255-.991.875c.012.62.121 2.714.121 2.714s-2.612-1.543-2.904-1.948c-.292-.406-3.476-2.772-3.774-3.125-.298-.354-1.512-.377-1.655 0l.172.434-1.002.482.67 2.011a4.495 4.495 0 0 0-.344 1.427c.109.249.464 1.739.464 1.739s-.218.226-.189 1.015c.029.788 4.307 4.817 5.154 5.252 1.012.43 2.049.8 3.104 1.108l2.686 3.519 4.1-2.818Z" fill="#fff" stroke="#022C40" stroke-linecap="round" stroke-linejoin="round"/>
  <path d="M150.746 73.796a6.05 6.05 0 0 0-.367 3.664M142.585 69.158c.865.336 1.947 1.97 2.445 2.475.451.412.934.786 1.444 1.119M142.253 71.634c.71-.15 1.191.127 1.174.829-.017.701 1.518 1.768 1.518 1.768M142.373 74.8s.498-.9.894-.488c.395.412.521 1.467 1.248 1.687" stroke="#022C40" stroke-linecap="round" stroke-linejoin="round"/>
  <path d="M199.087 77.965s-11.3.707-13.791 1.74c-2.044.852-16.424 10.435-16.424 10.435s-8.459-6.459-10.916-8.697a4.618 4.618 0 0 0-1.506-.44l-1.289-.83-3.167 4.517.888 1.247s.143 2.011.538 2.516c5.258 6.684 15.326 16.042 16.837 16.963 1.512.922 14.925-7.113 14.925-7.113l2.491 14.784h40.002s-.103-25.945-1.787-27.933c-1.683-1.989-20.983-9.786-20.983-9.786l-5.818 2.597Z" fill="#757575" stroke="#022C40" stroke-linecap="round" stroke-linejoin="round"/>
  <path d="M212.596 68.579s-3.585 2.435-1.683 10.215c0 0-5.401 3.907-10.744-.035 0 0 1.231-6.203 0-7.45" fill="#fff"/>
  <path d="M212.596 68.579s-3.585 2.435-1.683 10.215c0 0-5.401 3.907-10.744-.035 0 0 1.231-6.203 0-7.45M225.173 86.36s-4.874 5.676-5.441 15.392" stroke="#022C40" stroke-linecap="round" stroke-linejoin="round"/>
  <path d="M203.725 52.99s-3.195-.488-4.312 3.478a10.272 10.272 0 0 0 .739 7.258l5.876-5.583-2.303-5.154Z" fill="#022C40"/>
  <path d="M211.502 70.944c4.118-4.974 7.027-13.265.842-16.575-11.935-6.39-15.88 6.093-13.876 17.688.619 3.577 5.418 1.983 8.928.69" fill="#fff"/>
  <path d="M211.502 70.944c4.118-4.974 7.027-13.265.842-16.575-11.935-6.39-15.88 6.093-13.876 17.688.619 3.577 5.418 1.983 8.928.69" stroke="#022C40" stroke-linecap="round" stroke-linejoin="round"/>
  <path d="M203.164 60.132s1.97.539 2.468 1.605M200.312 59.604a1.494 1.494 0 0 0-1.477.081" stroke="#022C40" stroke-linecap="round" stroke-linejoin="round"/>
  <path d="M203.13 62.88c-.035.353.12.66.343.683.224.023.436-.249.47-.58.034-.33-.12-.666-.344-.689-.223-.023-.435.226-.469.585ZM198.858 61.807c-.029.36.126.667.349.69.223.023.435-.25.469-.58.035-.33-.12-.66-.349-.684-.229-.023-.435.22-.469.574ZM209.664 65.204s-1.85 2.714-3.092 3.583a3.75 3.75 0 0 1-2.709.545s-1.587-1.982-3.9-2.011a4.447 4.447 0 0 0-1.987-.69l.131-3.027s-1.758 6.488-1.592 8.813c.166 2.324 5.813 3.936 8.636 3.287 2.824-.65 4.261-5.096 5.12-9.276.063-.348-.607-1.224-.607-1.224Z" fill="#022C40"/>
  <path d="M198.319 68.816s2.234 1.084 4.221.829" stroke="#fff" stroke-linecap="round" stroke-linejoin="round"/>
  <path d="M211.514 56.937c.733-.58-1.145-3.073-2.199-3.02-1.054.052-6.225.249-6.225.249s-1.088-5.763 7.617-2.65c1.426.51 1.884 1.861 3.161 2.551 1.277.69 3.006 4.32 2.514 7.415-.493 3.096-2.125 8.528-5.086 10.158 0 0-1.019-.105-.4-.818 2.915-3.322-.138-9.572-.625-4.406l-1.025-.62a7.359 7.359 0 0 1 .172-1.687c.218-1.42-1.334-4.325 2.096-7.172Z" fill="#022C40"/>
  <path d="M211.067 64.828s1.873-2.25 3.007-1.484c1.134.765.372 3.478-.235 4.157-.607.678-1.099.828-1.941 1.913-.842 1.084-1.902.719-1.718-.151" fill="#fff"/>
  <path d="M211.067 64.828s1.873-2.25 3.007-1.484c1.134.765.372 3.478-.235 4.157-.607.678-1.099.828-1.941 1.913-.842 1.084-1.902.719-1.718-.151" stroke="#022C40" stroke-linecap="round" stroke-linejoin="round"/>
  <path d="M205.34 63.17c.063 1.257-.693 2.319-1.718 2.37-1.025.053-1.861-.921-1.924-2.18-.063-1.257.693-2.318 1.718-2.37 1.025-.053 1.85.921 1.924 2.18ZM200.06 62.027c.069 1.258-.693 2.32-1.689 2.377-.997.058-1.862-.927-1.93-2.186-.069-1.258.698-2.319 1.718-2.37 1.019-.053 1.838.921 1.901 2.18Z" stroke="#022C40" stroke-width=".5" stroke-miterlimit="10"/>
  <path d="M200.604 60.949c0 .58-2.966 4.006-3.001 4.76-.034.754 2.761.8 2.761.8" fill="#fff"/>
  <path d="M200.604 60.949c0 .58-2.966 4.006-3.001 4.76-.034.754 2.761.8 2.761.8" stroke="#022C40" stroke-linecap="round" stroke-linejoin="round"/>
  <path d="M200.06 62.027s.888-.226 1.632.986M205.352 63.61l.962.145 5.4.383" stroke="#022C40" stroke-width=".5" stroke-miterlimit="10"/>
  <path d="m221.788 89.45-1.077-1.351s-9.071 1.049-13.08 6.522c0 0-7.445-3.56-14.145-1.826l-.195 2.429 14.655 8.876 5.727-2.412 8.115-12.239Z" fill="#fff" stroke="#022C40" stroke-linecap="round" stroke-linejoin="round"/>
  <path d="m223.26 88.632-1.546 10.436s-8.534 3.791-10.309 6.841l-.424.058-2.004.284-1.082-.325a60.02 60.02 0 0 0-8.075-1.785 12.368 12.368 0 0 0-2.864-.111l-5.773-9.108s8.929-1.252 15.102.888l2.955-.21.109-.092c.888-.736 7.107-5.74 13.911-6.876Z" fill="#275F7A"/>
  <path opacity=".3" d="m210.867 103.532-1.518-8.03c.882-.73 7.102-5.733 13.905-6.87l-1.546 10.436s-8.533 3.792-10.309 6.841l-.423.058-.109-2.435ZM207.929 104.1l-.04 1.821a59.955 59.955 0 0 0-8.075-1.786 8.538 8.538 0 0 1 2.026-4.987 8.353 8.353 0 0 1 4.589-2.74l1.5 7.692Z" fill="#000" fill-opacity=".7"/>
  <path d="m223.26 88.632-1.546 10.436s-8.534 3.791-10.309 6.841l-.424.058-2.004.284-1.082-.325a60.02 60.02 0 0 0-8.075-1.785 12.368 12.368 0 0 0-2.864-.111l-5.773-9.108s8.929-1.252 15.102.888l2.955-.21.109-.092c.888-.736 7.107-5.74 13.911-6.876Z" stroke="#022C40" stroke-linecap="round" stroke-linejoin="round"/>
  <path d="M210.832 108.454c-3.058-.197-8.876-4.939-8.876-4.939a8.71 8.71 0 0 0-1.455-2.429c-.83-.841.275-1.543.275-1.543s-.968-.632-1.518-.98c-.549-.347.413-1.263.413-1.263s4.152.58 4.581.423c.43-.157 4.416 2.452 5.034 2.522a4.543 4.543 0 0 0 2.394-.632c.412-.348 1.69-2.522 2.52-2.945.83-.424 2.291-.418 1.592.493-.699.91-.573 2.939-.916 3.223-.344.284-.911 3.334-.911 4.383l4.524 4.186-2.577 3.554-5.08-4.053Z" fill="#fff" stroke="#022C40" stroke-linecap="round" stroke-linejoin="round"/>
  <path d="M200.759 99.543a7.487 7.487 0 0 1 2.348.667M203.84 101.201s-.258 1.061-.327 1.224c-.068.162.854 1.2.722 1.675-.132.476.934 1.739.934 1.739M202.798 102.424a17.435 17.435 0 0 1-2.291-1.339" stroke="#022C40" stroke-linecap="round" stroke-linejoin="round"/>
  <path d="m200.581 76.023 1.982 4.04 8.143-4.568 1.793 4.047-8.31 5.34-1.598-4.18-3.229 3.147-1.094-5.09 2.313-2.736Z" fill="#757575" stroke="#022C40" stroke-linecap="round" stroke-linejoin="round"/>
  <path d="M225.911 85.136c1.976 2.14 9.003 17.828 9.679 27.933h-21.407v-.904l-2.337-1.386s1.449-5.16 5.578-4.354l1.203 1.739 2.663 2.029s4.673.122 6.03 1.485" fill="#757575"/>
  <path d="M225.911 85.136c1.976 2.14 9.003 17.828 9.679 27.933h-21.407v-.904l-2.337-1.386s1.449-5.16 5.578-4.354l1.203 1.739 2.663 2.029s4.673.122 6.03 1.485" stroke="#022C40" stroke-linecap="round" stroke-linejoin="round"/>
  <path d="M221.29 110.216s2.594-3.785 6.408-2.185" stroke="#022C40" stroke-linecap="round" stroke-linejoin="round"/>
  <path d="M220.299 104.1a45.909 45.909 0 0 1 2.222 4.829" stroke="#022C40" stroke-linecap="round" stroke-linejoin="round"/>
  <path d="M185.182 98.285s-1.587-9.357-1.146-12.592l1.146 12.592Z" fill="#757575"/>
  <path d="M185.182 98.285s-1.587-9.357-1.146-12.592" stroke="#022C40" stroke-linecap="round" stroke-linejoin="round"/>
  <path d="M182.009 89.34s.882 4.597 2.864 7.061l-2.864-7.061Z" fill="#757575"/>
  <path d="M182.009 89.34s.882 4.597 2.864 7.061" stroke="#022C40" stroke-linecap="round" stroke-linejoin="round"/>
  <path d="M168.872 90.145s2.491 2.088.904 7.294l-.904-7.293Z" fill="#757575"/>
  <path d="M168.872 90.145s2.491 2.088.904 7.294" stroke="#022C40" stroke-linecap="round" stroke-linejoin="round"/>
  <path d="M202.185 84.012a.543.543 0 0 1-.646.534.537.537 0 0 1-.421-.432.549.549 0 0 1 .234-.558.534.534 0 0 1 .679.07.54.54 0 0 1 .154.386ZM200.776 91.989a.542.542 0 0 0 .538-.545c0-.3-.241-.545-.538-.545a.542.542 0 0 0-.538.545c0 .3.241.545.538.545ZM199.963 108.726a.541.541 0 0 0 .538-.544.542.542 0 0 0-.538-.545.542.542 0 0 0-.539.545c0 .3.241.544.539.544Z" fill="#022C40"/>
  <path d="M130.284 59h6.746l3.379-5.919-3.379-5.913h-6.746l-3.373 5.913 3.373 5.92ZM129.304 71.976l-3.373-5.914h-6.746M120.09 53.082h6.746l3.373-5.914-3.373-5.92h-6.746l-3.373 5.92 3.373 5.914ZM130.284 47.168h6.746l3.379-5.92-3.379-5.913h-6.746l-3.373 5.914 3.373 5.919Z" stroke="#022C40" stroke-linecap="round" stroke-linejoin="round"/>
  <path d="M129.304 47.168a.928.928 0 0 1 .56-.856.9.9 0 0 1 .995.198.928.928 0 0 1-.142 1.42.9.9 0 0 1-.508.154.896.896 0 0 1-.639-.269.921.921 0 0 1-.266-.647ZM116.121 35.665c.5 0 .905-.41.905-.916a.91.91 0 0 0-.905-.916.91.91 0 0 0-.905.916.91.91 0 0 0 .905.916ZM128.4 71.976c0-.181.053-.359.152-.51a.907.907 0 0 1 .929-.389.917.917 0 0 1 .659 1.249.91.91 0 0 1-.836.565.896.896 0 0 1-.639-.268.92.92 0 0 1-.265-.647ZM119.185 66.978c.5 0 .905-.41.905-.916a.91.91 0 0 0-.905-.915.91.91 0 0 0-.905.915.91.91 0 0 0 .905.916ZM146.926 41.405c0-.182.054-.36.154-.512a.902.902 0 0 1 1.403-.137.926.926 0 0 1-.145 1.419.9.9 0 0 1-.855.082.902.902 0 0 1-.49-.5.923.923 0 0 1-.067-.352ZM125.863 66.978a.91.91 0 0 0 .904-.916.91.91 0 0 0-.904-.915.91.91 0 0 0-.905.915.91.91 0 0 0 .905.916ZM139.481 41.405a.93.93 0 0 1 .562-.851.9.9 0 0 1 .993.2.926.926 0 0 1-.138 1.418.904.904 0 0 1-1.15-.115.926.926 0 0 1-.267-.652ZM129.304 59a.929.929 0 0 1 .56-.855.9.9 0 0 1 .995.198.928.928 0 0 1-.142 1.42.9.9 0 0 1-1.146-.117.931.931 0 0 1-.267-.645Z" fill="#022C40"/>
  <path d="M140.409 41.406h7.428M130.209 59l-4.346 7.062M120.09 41.249l-3.969-6.5M112.313 87.588a8.66 8.66 0 0 1 2.027-1.379.74.74 0 0 0 .277.468.72.72 0 0 0 .519.146c.407-.063.865-.47 1.145-.173.115.115.138.3.258.411.367.342.991-.394 1.403-.116.109.075.166.203.281.278a.712.712 0 0 0 .573 0 11.252 11.252 0 0 1 3.121-.272l4.805.035-.367-.192M112.055 91.647c.04-.19.145-.361.296-.482a.817.817 0 0 1 1.053.027.839.839 0 0 1 .272.495.956.956 0 0 0 .504-.58c.309.702 1.265.76 2.027.708l3.396-.244c1.019-.075 2.211-.26 2.669-1.159.503.93.704 1.997.572 3.049a9.596 9.596 0 0 1 1.22-2.121c.103.37.206.741.304 1.112 2.365-1.675 5.601-.58 8.464-.944M112.359 97.021a.434.434 0 0 1 .337-.47.802.802 0 0 0 .724.568.79.79 0 0 0 .319-.051 2.3 2.3 0 0 0 1.008-.835.762.762 0 0 0 .919.041.786.786 0 0 0 .226-.238c.256.419.467.864.63 1.327.309-.8 1.357-.927 2.211-.921h6.872M165.481 33.92a7.472 7.472 0 0 0-4.581 1.433c-1.65 1.066-3.219 2.864-2.806 4.8.412 1.937 2.668 2.963 4.655 3.351 1.709.337 3.448.492 5.189.464.67.01 1.34-.062 1.993-.215a10.45 10.45 0 0 0 1.913-.76l4.432-2.11c.607-.29 1.289-.66 1.455-1.321.206-.818-.487-1.577-1.145-2.07a12.014 12.014 0 0 0-8.591-2.191" stroke="#022C40" stroke-linecap="round" stroke-linejoin="round"/>
  <path d="M160.218 38.257c.261-.296.598-.513.974-.626a1.068 1.068 0 0 0 0 .684c.103.209.418.313.573.14.154-.175.188-.453.36-.366l.206.464c.281-.099.499-.33.774-.452a2.12 2.12 0 0 1 .973-.093c2.459.128 4.924.052 7.371-.226M164.227 40.75a.794.794 0 0 1 .487-.516c-.132.145.028.394.223.43a1.3 1.3 0 0 0 .573-.123c.217-.056.44-.087.664-.092l4.175-.29M166.008 46.64a22.058 22.058 0 0 1-7.172 11.1 21.62 21.62 0 0 1-12.168 4.92M146.737 61.401a8.668 8.668 0 0 0-2.136 1.89c.357-.076.729-.05 1.072.075.344.124.647.343.875.632M164.634 62.781l.521 1.16.744-.893c.14.105.237.257.275.428.058.163.143.343.304.389.16.046.361-.174.24-.296a.879.879 0 0 0 .728.122c.108 0 .206-.081.315-.11.129-.029.262-.04.395-.035h7.737M164.994 69.158a.583.583 0 0 1 .439-.358.567.567 0 0 1 .529.196.654.654 0 0 0 .115.203.334.334 0 0 0 .452-.058c.126-.116.206-.273.338-.377.361-.284.876-.064 1.317.058.565.12 1.144.15 1.718.093l4.393-.232M165.132 74.086a.65.65 0 0 0 .647-.487.373.373 0 0 1 .298.29c.21-.132.39-.308.527-.516 2.829.035 5.662.035 8.498 0M165.126 77.768a.76.76 0 0 0 .968-.348c.179.147.305.351.355.58a.979.979 0 0 1 .779-.145c.109 0 .218.075.326.104.275.071.559.097.842.075l9.873-.145M138.616 101.207l4.484-.441a.261.261 0 0 0 .293-.21.268.268 0 0 0-.006-.132v-2.898a.4.4 0 0 0-.069-.273.372.372 0 0 0-.275-.098c-.973-.087-3.167-.58-4.009.087-.841.666-.412 2.974-.418 3.965Z" stroke="#022C40" stroke-linecap="round" stroke-linejoin="round"/>
  <path d="M139.899 98.622c.058.272.109.544.166.823a6.705 6.705 0 0 1 2.068-.11M142.184 102.459a.42.42 0 0 0 .378.644c.304-.058.544-.47.825-.342M139.097 95.775a.53.53 0 0 1 .53-.23.525.525 0 0 1 .421.398l1.077-.127M148.031 105.388h4.582a24.238 24.238 0 0 0 3.551-.215.565.565 0 0 0 .355-.151.587.587 0 0 0 .097-.405v-7.05c0-.081-7.015-.308-7.834.266-1.65 1.171-.751 5.752-.751 7.555Z" stroke="#022C40" stroke-linecap="round" stroke-linejoin="round"/>
  <path d="m150.517 99.654 1.094.029a7.59 7.59 0 0 1-.922 2.127c-.149.203-.327.458-.218.684.573.092 1.243.145 1.603-.302.47-.579.058-1.489.413-2.139l.137 1.374.476.458c.123.14.278.247.452.313a.398.398 0 0 0 .475-.174M153.701 106.57c.361-.133.51.55.882.649.372.099.573-.4.888-.62a.734.734 0 0 1 .967.127M150.746 95.415c.343.087.206.667.464.916.257.25.687 0 .979-.238.292-.237.825-.342.933 0" stroke="#022C40" stroke-linecap="round" stroke-linejoin="round"/>
  <path d="M238.877 112.936H101.638v9.809h137.239v-9.809Z" fill="#BFBFBF" stroke="#022C40" stroke-linecap="round" stroke-linejoin="round"/>
  <path d="M213.484 116.797h-89.672v2.086h89.672v-2.086Z" fill="#022C40"/>
  <path d="M174.667 117.857a1.531 1.531 0 0 1-.93 1.409 1.499 1.499 0 0 1-.87.087 1.523 1.523 0 0 1-1.183-1.198 1.543 1.543 0 0 1 .085-.881 1.514 1.514 0 0 1 1.392-.941 1.5 1.5 0 0 1 1.065.446c.282.286.441.674.441 1.078Z" fill="#275F7A" stroke="#022C40" stroke-linecap="round" stroke-linejoin="round"/>
  <path d="M234.433 115.962h-3.711v3.756h3.711v-3.756ZM228.208 115.962h-3.711v3.756h3.711v-3.756ZM112.353 115.921h-6.466v3.837h6.466v-3.837Z" stroke="#022C40" stroke-linecap="round" stroke-linejoin="round"/>
  <path d="M105.813 21.821h24.396M235.401 21.734c.001.288-.082.57-.24.81-.157.24-.382.428-.645.539a1.42 1.42 0 0 1-1.569-.314 1.47 1.47 0 0 1-.31-1.589c.109-.266.294-.493.531-.652a1.428 1.428 0 0 1 1.814.181c.268.272.419.64.419 1.025v0ZM229.737 21.82c0 .288-.084.568-.241.806a1.438 1.438 0 0 1-.643.534 1.414 1.414 0 0 1-1.56-.314 1.455 1.455 0 0 1-.31-1.58 1.44 1.44 0 0 1 .527-.65 1.418 1.418 0 0 1 1.808.18c.268.272.419.64.419 1.025v0ZM224.073 21.914a1.46 1.46 0 0 1-.244.803 1.434 1.434 0 0 1-.644.531 1.413 1.413 0 0 1-1.558-.318 1.468 1.468 0 0 1-.308-1.578c.109-.265.292-.49.528-.65a1.416 1.416 0 0 1 1.809.183 1.457 1.457 0 0 1 .417 1.029v0Z" stroke="#fff" stroke-linecap="round" stroke-linejoin="round"/>
  <path d="M115.296 213.634h-13.561l-7.342-2.354-2.29-.736-.67 6.997-80.303.151s1.225-3.13 3.224-7.722c4.313-9.908 12.216-26.64 19.128-33.475 5.612-5.549 19.632-5.705 19.632-5.705a8.658 8.658 0 0 1 4.828-1.473c2.577.128 22.06 2.267 23.268 2.899a6.573 6.573 0 0 1 2.113 1.983s6.827-3.056 13.533-.302c6.706 2.754 18.44 39.737 18.44 39.737Z" fill="#F2F6FA"/>
  <path opacity=".2" d="m94.393 211.28-2.29-.736-.67 6.997-80.303.151s1.225-3.131 3.224-7.722c3.098-.076 6.592-.238 6.592-.238l1.798-5.954s2.823-3.021 6.351-1.241a2.256 2.256 0 0 1 .07-1.362c.164-.436.457-.809.84-1.067 1.364-.916 6.953 2.023 6.953 2.023s2.692-5.217 3.608-8.632c.916-3.415 1.523 4.829 1.523 4.829s2.291-3.791 2.291-4.829c0-1.038 4.227 10.279 4.227 10.279s5.59.678 7.101 1.258c1.512.58 16.562 1.16 21.407 0 4.845-1.16-3.436 5.798-3.436 5.798s8.51 2.898 13.32.997c4.811-1.902 6.965-3.937 6.965-3.937s.177 1.409.43 3.386Z" fill="#000" fill-opacity=".7"/>
  <path d="M115.296 213.634h-13.561l-7.342-2.354-2.29-.736-.67 6.997-80.303.151s1.225-3.13 3.224-7.722c4.313-9.908 12.216-26.64 19.128-33.475 5.612-5.549 19.632-5.705 19.632-5.705a8.658 8.658 0 0 1 4.828-1.473c2.577.128 22.06 2.267 23.268 2.899a6.573 6.573 0 0 1 2.113 1.983s6.827-3.056 13.533-.302c6.706 2.754 18.44 39.737 18.44 39.737Z" stroke="#022C40" stroke-linecap="round" stroke-linejoin="round"/>
  <path d="M89.972 195.754a30.67 30.67 0 0 1-4.06 4.702M81.943 203.836a41.429 41.429 0 0 1-19.895 7.971" stroke="#022C40" stroke-linecap="round" stroke-linejoin="round"/>
  <path d="M107.021 201.859s2.085-1.31 3.912-.881c1.826.429 3.338 2.255 3.338 2.255s15.165-1.27 18.607-1.159c3.442.11 11.145 2.394 11.145 2.394s3.733-.765 4.134-.609c.401.157-.807 13.021-.807 13.021H98.099c-2.417 0-4.21-3.542-6.025-6.325a126.328 126.328 0 0 0 4.753-34.049" fill="#F2F6FA"/>
  <path opacity=".2" d="M120.537 216.869H98.11c-2.417 0-4.21-3.542-6.025-6.325a118.271 118.271 0 0 0 3.82-19.097s2.383 3.577.934 7.722l1.449-4.145s1.391 4.441 0 8.203c-1.392 3.763-2.383 4.841-2.383 4.841s1.718 2.273 3.54 1.664c1.821-.609 3.802 3.079 3.802 3.079s4.375.168 5.286 0c.418-.076 6.082 1.901 12.004 4.058Z" fill="#000" fill-opacity=".7"/>
  <path d="M107.021 201.859s2.085-1.31 3.912-.881c1.826.429 3.338 2.255 3.338 2.255s15.165-1.27 18.607-1.159c3.442.11 11.145 2.394 11.145 2.394s3.733-.765 4.134-.609c.401.157-.807 13.021-.807 13.021H98.099c-2.417 0-4.21-3.542-6.025-6.325a126.328 126.328 0 0 0 4.753-34.049" stroke="#022C40" stroke-linecap="round" stroke-linejoin="round"/>
  <path d="M78.868 161.798v12.383a52.523 52.523 0 0 1-4.81 2.951c-3.34 1.792-7.623 3.566-10.172 2.557-4.622-1.838-7.617-8.899-7.617-8.899 4.989-3.85 5.59-8.992 6.346-11.439l16.253 2.447Z" fill="#F2F6FA" stroke="#022C40" stroke-linecap="round" stroke-linejoin="round"/>
  <path d="M53.853 171.735s4.232 9.328 9.369 11.015c5.137 1.687 13.836-4.899 13.836-4.899M30.745 183.023s8.017 6.319 9.363 8.447c1.346 2.127 0 22.164 0 22.164" stroke="#022C40" stroke-linecap="round" stroke-linejoin="round"/>
  <path d="M19.83 203.412c4.724-3.084 8.046.29 10.915.899 2.869.609 9.214-2.673 13.973 0 4.76 2.673 4.76 1.739 4.76 1.739s4.982 3.85 2.41 11.555l-40.775.075s-2.72-5.884 6.22-14.279" fill="#F2F6FA"/>
  <path d="M19.83 203.412c4.724-3.084 8.046.29 10.915.899 2.869.609 9.214-2.673 13.973 0 4.76 2.673 4.76 1.739 4.76 1.739s4.982 3.85 2.41 11.555l-40.775.075s-2.72-5.884 6.22-14.279" stroke="#022C40" stroke-linecap="round" stroke-linejoin="round"/>
  <path d="m59.786 191.487 10.76 19.926.338 2.238-1.718-1.548-11.098-19.781c.163-.305.417-.549.725-.699.309-.15.656-.198.993-.136Z" fill="#275F7A" stroke="#022C40" stroke-linecap="round" stroke-linejoin="round"/>
  <path d="M49.569 207.094a12.201 12.201 0 0 1 2.491-.458c.91 0 6.511-4.192 8.413-4.505 1.901-.313 5.32 2.557 7.061 3.015 1.741.458 1.632 2.754 2.652 3.67 1.019.916-.453 1.948-1.718.916a2.375 2.375 0 0 1-.459 2.075s.344 1.253 0 1.827H47.851s-.304-3.902 1.718-6.54Z" fill="#F2F6FA" stroke="#022C40" stroke-linecap="round" stroke-linejoin="round"/>
  <path d="m68.508 209.731-1.816-1.814-4.644-1.507M68.055 211.807l-2.777-1.264-3.797-.724M61.48 212.811l3.798.174 2.777.649M60.49 202.131c-1.718 1.525 0 3.131-.819 4.279-.819 1.148-1.718 1.49-1.02 3.322" stroke="#022C40" stroke-linecap="round" stroke-linejoin="round"/>
  <path d="M85.007 214.602h91.733c0 .819-.321 1.605-.894 2.184a3.03 3.03 0 0 1-2.158.905H92.366a3 3 0 0 1-.94-.151l-6.534-2.133a.405.405 0 0 1-.225-.172.416.416 0 0 1 .075-.532.4.4 0 0 1 .265-.101Z" fill="#275F7A"/>
  <path opacity=".2" d="M176.74 214.602a3.12 3.12 0 0 1-.893 2.185l-.092.081c-.561.529-1.3.823-2.067.823H92.366c-.319 0-.636-.051-.94-.15l-6.534-2.133a.41.41 0 0 1-.285-.459.41.41 0 0 1 .411-.347h91.722Z" fill="#000" fill-opacity=".7"/>
  <path opacity=".2" d="M176.74 214.602a3.12 3.12 0 0 1-.893 2.185l-.092.081h-52.487a2.235 2.235 0 0 1-1.585-.663 2.29 2.29 0 0 1-.66-1.603h55.717Z" fill="#000" fill-opacity=".7"/>
  <path d="M85.007 214.602h91.733c0 .819-.321 1.605-.894 2.184a3.03 3.03 0 0 1-2.158.905H92.366a3 3 0 0 1-.94-.151l-6.534-2.133a.405.405 0 0 1-.225-.172.416.416 0 0 1 .075-.532.4.4 0 0 1 .265-.101v0Z" stroke="#022C40" stroke-linecap="round" stroke-linejoin="round"/>
  <path d="M121.023 214.602a2.29 2.29 0 0 0 .66 1.603c.421.424.991.663 1.585.663h8.711" stroke="#022C40" stroke-linecap="round" stroke-linejoin="round"/>
  <path d="M193.159 176.483v.075l-10.675 37.598a2.502 2.502 0 0 1-.861 1.21c-.403.306-.887.48-1.389.5h-55.609a1.249 1.249 0 0 1-1.103-.5 1.282 1.282 0 0 1-.179-1.21l10.663-37.598c.158-.483.459-.906.861-1.211.402-.306.887-.48 1.39-.499h55.608a1.24 1.24 0 0 1 1.332 1.023c.037.204.024.414-.038.612Z" fill="#275F7A"/>
  <path opacity=".4" d="M193.159 176.483v.075l-10.675 37.598a2.502 2.502 0 0 1-.861 1.21c-.402.306-.887.48-1.389.5h-55.242v-.075l10.658-37.598c.159-.482.459-.905.862-1.21.402-.306.886-.48 1.389-.5h55.258Z" fill="#F2F6FA"/>
  <path d="M193.159 176.483v.075l-10.675 37.598a2.502 2.502 0 0 1-.861 1.21c-.403.306-.887.48-1.389.5h-55.609a1.249 1.249 0 0 1-1.103-.5 1.282 1.282 0 0 1-.179-1.21l10.663-37.598c.158-.483.459-.906.861-1.211.402-.306.887-.48 1.39-.499h55.608a1.24 1.24 0 0 1 1.332 1.023c.037.204.024.414-.038.612Z" stroke="#022C40" stroke-linecap="round" stroke-linejoin="round"/>
  <path d="M162.251 196.05a6.026 6.026 0 0 1-2.111 2.424c-.908.6-1.96.938-3.043.979-2.337 0-3.717-1.832-3.075-4.093a6.015 6.015 0 0 1 2.069-2.901 5.9 5.9 0 0 1 3.331-1.198h.103a4.168 4.168 0 0 0-.263.696c-.659 2.243.687 4.058 2.989 4.093Z" fill="#F2F6FA" stroke="#022C40" stroke-linecap="round" stroke-linejoin="round"/>
  <path d="m125.278 214.022 10.406-36.698a1.46 1.46 0 0 1 .502-.706 1.43 1.43 0 0 1 .81-.291h53.901" stroke="#022C40" stroke-linecap="round" stroke-linejoin="round"/>
  <path d="M99.444 217.692h-76.74l.928-1.96s7.25.684 12.994-1.13c2.537-.8 6.443-1.16 10.36-1.113 2.468.034 8.476.058 12.204.04 1.329 0 2.371 0 2.864-.035h.572a14.906 14.906 0 0 1 3.167.302 23.588 23.588 0 0 1 3.03-.151c1.77 0 9.38-.029 11.454 0 2.731.035 5.887.58 8.882.997l.08-.029v.041c3.62.51 7.01.858 9.163-.041l1.042 3.079Z" fill="#F2F6FA"/>
  <path opacity=".4" d="M99.444 217.692H39.96l1.208-2.105s3.248 1.919 6.42.58c3.173-1.339 6.369-2.07 11.603-2.65a18.262 18.262 0 0 1 3.436-.046c2.279.177 4.52.693 6.65 1.531 0 0 3.12-1.38 11-1.38 2.732.035 5.888.58 8.883.997l.08-.029v.041c3.62.51 7.01.858 9.163-.041l1.042 3.102Z" fill="#275F7A"/>
  <path d="m41.168 215.587-17.513.145-.928 1.959H39.96l1.209-2.104Z" fill="#275F7A"/>
  <path d="m40.452 216.827.716-1.241a12.122 12.122 0 0 0 4.907 1.032c2.566-.075 6.62-3.292 14.415-3.136M65.776 213.784c1.438.533 3.482 1.229 3.482 1.229s2.646-1.542 8.459-1.38M41.167 215.587s-9.06.163-12.684.244M68.05 217.691c.049-.377.214-.73.472-1.008.258-.277.596-.466.965-.539 1.283-.215 2.113 1.391 2.113 1.391M69.258 215.013l.23 1.13M70.547 216.143s4.077-1.884 8.017-1.542M68.868 216.37c-.36-.284-6.482-2.197-12.748-.783M68.05 217.152s-5.155-.991-9.639-.301" stroke="#022C40" stroke-linecap="round" stroke-linejoin="round"/>
  <path d="M71.12 216.862a25.656 25.656 0 0 1 10.52-.718c3.464.521 6.966.758 10.468.707" stroke="#022C40" stroke-linecap="round" stroke-linejoin="round"/>
  <path d="M99.444 217.692h-76.74l.928-1.96s7.25.684 12.994-1.13c2.537-.8 6.443-1.16 10.36-1.113 2.468.034 8.476.058 12.204.04 1.329 0 2.371 0 2.864-.035h.572a14.906 14.906 0 0 1 3.167.302 23.588 23.588 0 0 1 3.03-.151c1.77 0 9.38-.029 11.454 0 2.731.035 5.887.58 8.882.997l.08-.029v.041c3.62.51 7.01.858 9.163-.041l1.042 3.079Z" stroke="#022C40" stroke-linecap="round" stroke-linejoin="round"/>
  <path d="M78.868 172.123v2.058a52.496 52.496 0 0 1-4.811 2.951c-3.67-3.414-4.192-9.902-4.192-9.902l9.003 4.893Z" fill="#022C40"/>
  <path d="M63.222 160.267c-4.318-6.464-3.436-18.552 2.113-25.15 8.155-9.635 29.436-2.597 29.42 11.016a37.244 37.244 0 0 1-.482 5.647c-.28 1.797-1.821 3.612-2.29 5.403-.47 1.791-.281 4.638-.47 6.377-.424 3.96-5.836 11.816-7.302 12.668-2.05 1.16-13.132-1.989-15.549-9.183" fill="#F2F6FA"/>
  <path d="M63.222 160.267c-4.318-6.464-3.436-18.552 2.113-25.15 8.155-9.635 29.436-2.597 29.42 11.016a37.244 37.244 0 0 1-.482 5.647c-.28 1.797-1.821 3.612-2.29 5.403-.47 1.791-.281 4.638-.47 6.377-.424 3.96-5.836 11.816-7.302 12.668-2.05 1.16-13.132-1.989-15.549-9.183" stroke="#022C40" stroke-linecap="round" stroke-linejoin="round"/>
  <path d="M78.324 152.278s3.018-1.113 5.727 0M90.23 152.278s2.2-1.113 3.67 0" stroke="#022C40" stroke-linecap="round" stroke-linejoin="round"/>
  <path d="M81.147 157.472c-.16.783-.687 1.339-1.146 1.241-.458-.099-.761-.823-.6-1.612.16-.788.686-1.339 1.173-1.234.487.104.733.834.573 1.605ZM90.86 157.472c-.16.783-.687 1.339-1.145 1.241-.459-.099-.762-.823-.602-1.612.16-.788.682-1.339 1.174-1.234.493.104.733.834.573 1.605Z" fill="#022C40"/>
  <path d="M89.273 153.467s-1.437 2.522-1.586 4.638c-.149 2.116 2.29 6.499 1.587 7.873-.705 1.374-3.7 1.304-4.685.464" fill="#F2F6FA"/>
  <path d="M89.273 153.467s-1.437 2.522-1.586 4.638c-.149 2.116 2.29 6.499 1.587 7.873-.705 1.374-3.7 1.304-4.685.464M85.121 169.213a10.434 10.434 0 0 1-5.818-.841" stroke="#022C40" stroke-linecap="round" stroke-linejoin="round"/>
  <path d="M67.551 154.307s1.41-1.38 3.07-.841c1.66.54 1.964 5.12 1.964 5.12l1.209-1.305s-.453-2.591 1.357-6.226.905-7.914.905-7.914 3.121 1.067 4.203 3.513c0 0 1.18-2.597 0-4.586 0 0 4.862 1.224 6.07 4.894 0 0 .957-2.754.63-4.128 0 0 3.294 1.066 4.502 4.278 0 0 1.1-2.446.624-4.435 0 0 1.329 1.16 1.839 4.592a10.8 10.8 0 0 0 .83-6.731s1.718 1.988 1.993 3.67c0 0 1.397-4.893-6.775-11.468-8.172-6.574-22.163-5.084-24.34 0 0 0 .722-3.745 2.177-5.084 0 0-4.009 1.808-3.923 5.542 0 0-3.54-.458-5.349 1.838a13.686 13.686 0 0 1 3.322.151s-4.834 2.898-4.53 9.786c.303 6.887 4.53 16.813 4.53 16.813l3.31-.98s.527-4.684 2.382-6.499Z" fill="#022C40"/>
  <path d="M71.222 155.989s-2.565-4.586-3.923-4.894c-1.357-.307-3.928 1.531-3.327 3.978.601 2.446 1.06 6.574 1.815 7.032.756.458 1.965 3.212 3.173 2.447a1.155 1.155 0 0 0 .606-.843 1.175 1.175 0 0 0-.308-.995" fill="#F2F6FA"/>
  <path d="M71.222 155.989s-2.565-4.586-3.923-4.894c-1.357-.307-3.928 1.531-3.327 3.978.601 2.446 1.06 6.574 1.815 7.032.756.458 1.965 3.212 3.173 2.447a1.155 1.155 0 0 0 .606-.843 1.175 1.175 0 0 0-.308-.995M99.92 191.447a26.647 26.647 0 0 1-.997 3.327M98.001 196.989a16.47 16.47 0 0 1-3.928 5.548M114.283 203.233c-.785-.104-2.383.898-3.849 2.191M109.358 206.451c-1.146 1.199-2.033 2.469-2.033 3.28M26.089 200.108s3.258.916 3.287 3.744M38.298 184.663a15.581 15.581 0 0 1 1.472 1.959M41.059 189.011a11.324 11.324 0 0 1 1.013 4.488c0 4.771-1.357 7.537-1.357 7.537M58.085 179.985a22.864 22.864 0 0 0 2.766 2.225M63.726 183.95c2.926 1.496 6.712 2.62 10.64 1.629" stroke="#022C40" stroke-linecap="round" stroke-linejoin="round"/>
  <g opacity=".2" stroke="#F2F6FA" stroke-linecap="round" stroke-linejoin="round">
    <path opacity=".2" d="M69.865 132.983a17.686 17.686 0 0 1 3.093-.203M74.464 132.862c2.8.267 6.248 1.258 8.39 4.25M76.663 130.659s5.251.058 9.014 2.718M87.155 134.671a8.122 8.122 0 0 1 1.592 2.452M68.508 135.251s5.154 1.837 6.947 5.125M66.01 137.112a14.903 14.903 0 0 1 2.366 5.217M68.698 144.909c.006.693-.057 1.384-.19 2.064M62.54 139.251a16.64 16.64 0 0 0-.658 2.092M61.476 143.367a17.964 17.964 0 0 0-.069 5.467"/>
  </g>
  <path d="M130.129 228h72.273v-10.308H1.068V228h40.707" fill="#F2F6FA"/>
  <path d="M130.129 228h72.273v-10.308H1.068V228h40.707M124.941 228h-10.263" stroke="#022C40" stroke-linecap="round" stroke-linejoin="round"/>
</svg>
