<svg width="249" height="228" fill="none" xmlns="http://www.w3.org/2000/svg">
  <path d="M124.032 228c40.759 0 73.8-1.995 73.8-4.456 0-2.46-33.041-4.455-73.8-4.455-40.758 0-73.8 1.995-73.8 4.455 0 2.461 33.042 4.456 73.8 4.456ZM50.77 192.599c1.03.41 3.547.361 3.547.361s-.537-1.52-.585-1.614c-.537-1.064-2.297-2.822-3.72-2.644a1.785 1.785 0 0 0-.665.238 1.64 1.64 0 0 0-.5.469 1.45 1.45 0 0 0-.197 1.274c.23.886 1.24 1.559 2.12 1.916Z" fill="#022C40"/>
  <path d="M51.633 199.316c1.074.144 3.312-.455 3.494-.495a26.29 26.29 0 0 0 1.358 3.466c.312.658.644 1.317.988 1.98-.204-.272-.392-.495-.424-.554-.837-.892-3.022-2.164-4.342-1.644-.217.091-.41.224-.567.389a1.534 1.534 0 0 0-.346.568 1.448 1.448 0 0 0 .161 1.266c.489.817 1.654 1.223 2.604 1.346.95.124 2.882-.346 3.392-.495l.397.748c.655 1.198 1.304 2.386 1.91 3.569.21.416.403.837.602 1.253-.183-.248-.338-.451-.365-.495-.838-.891-3.027-2.164-4.348-1.649a1.697 1.697 0 0 0-.565.39 1.538 1.538 0 0 0-.346.568 1.451 1.451 0 0 0 .16 1.265c.488.822 1.658 1.223 2.603 1.351.944.129 2.683-.302 3.3-.455.183.431.371.866.538 1.292.096.297.22.569.3.871.08.302.177.59.268.882.145.564.301 1.148.43 1.698.091.386.172.757.257 1.128a39.32 39.32 0 0 0-.676-1.292c-.681-.99-2.635-2.564-4.02-2.237-.229.06-.442.164-.624.305a1.59 1.59 0 0 0-.436.514 1.462 1.462 0 0 0-.05 1.275c.348.876 1.432 1.44 2.35 1.698 1.004.282 3.22 0 3.51 0 .134.614.258 1.213.365 1.777.242 1.248.419 2.371.537 3.317h.94a83.031 83.031 0 0 0-.661-3.465 86.604 86.604 0 0 0-.456-1.981 18.61 18.61 0 0 0 1.959-.851c.735.732 2.614 1.594 2.855 1.703-.258.579-.51 1.138-.762 1.668-.537 1.104-1.01 2.079-1.45 2.911h1.02c.37-.767.784-1.639 1.214-2.609.263-.584.536-1.218.8-1.871.268.049 2.474.465 3.504.252.929-.198 2.061-.683 2.474-1.534a1.451 1.451 0 0 0 .056-1.272 1.559 1.559 0 0 0-.392-.541 1.71 1.71 0 0 0-.597-.346c-1.358-.421-3.43.99-4.192 1.951-.043.054-.457.713-.709 1.133.108-.267.215-.524.322-.802.215-.544.413-1.094.634-1.688.09-.287.187-.579.284-.871.097-.292.166-.609.252-.916.188-.718.333-1.45.467-2.193.537.173 2.367.767 3.328.708.96-.06 2.147-.386 2.683-1.168.137-.18.231-.384.277-.6a1.446 1.446 0 0 0-.013-.651 1.51 1.51 0 0 0-.299-.59 1.666 1.666 0 0 0-.533-.427c-1.278-.609-3.559.495-4.466 1.342-.059.054-.633.718-.945 1.089.076-.446.156-.891.215-1.347.177-1.312.311-2.643.451-3.96.043-.406.091-.812.14-1.218.182.064 2.361.812 3.435.743.955-.06 2.147-.382 2.683-1.164.137-.18.23-.384.275-.6.045-.216.04-.438-.014-.652a1.511 1.511 0 0 0-.3-.589 1.671 1.671 0 0 0-.535-.426c-1.272-.609-3.553.495-4.46 1.341-.07.065-.902 1.02-1.074 1.273.102-.891.215-1.782.365-2.654.193-1.17.469-2.328.827-3.465.08.03 2.356.822 3.456.752.95-.064 2.147-.386 2.684-1.168.136-.18.23-.384.276-.599a1.449 1.449 0 0 0-.013-.652 1.51 1.51 0 0 0-.299-.59 1.663 1.663 0 0 0-.533-.426c-1.277-.609-3.559.495-4.466 1.341-.07.065-.966 1.099-1.11 1.297 0-.069.037-.138.059-.208a19.293 19.293 0 0 1 1.497-3.302c.327-.589.67-1.133 1.025-1.658.408.188 2.276 1.025 3.274 1.064.998.04 2.18-.163 2.823-.886.158-.165.276-.358.346-.568a1.45 1.45 0 0 0-.161-1.266 1.633 1.633 0 0 0-.48-.478c-1.197-.733-3.601.149-4.6.881-.053.04-.536.495-.923.847.166-.233.328-.495.489-.698a35.408 35.408 0 0 1 1.744-2.203c.311-.362.601-.683.875-.99.499 0 2.528-.065 3.413-.446.886-.381 1.857-1.074 2.067-1.98a1.45 1.45 0 0 0 .021-.65 1.51 1.51 0 0 0-.267-.603 1.657 1.657 0 0 0-.508-.451 1.804 1.804 0 0 0-.663-.222c-1.428-.138-3.119 1.664-3.64 2.738-.047.094-.568 1.629-.536 1.629h.032c-.273.282-.536.584-.858.925-.537.634-1.187 1.352-1.804 2.174a27.19 27.19 0 0 0-1.868 2.747 19.32 19.32 0 0 0-1.61 3.312v.045c0-.386 0-1.485-.027-1.555-.16-1.173-1.223-3.341-2.635-3.584a1.84 1.84 0 0 0-.709.036c-.23.058-.446.161-.63.301-.185.14-.335.315-.441.513a1.467 1.467 0 0 0-.174.635c-.085.931.644 1.862 1.358 2.476.805.663 3.038 1.302 3.22 1.351a26.593 26.593 0 0 0-.944 3.594 54.496 54.496 0 0 0-.354 2.144v-.678c-.167-1.174-1.23-3.342-2.641-3.585a1.84 1.84 0 0 0-.709.036 1.75 1.75 0 0 0-.63.301 1.595 1.595 0 0 0-.441.514 1.457 1.457 0 0 0-.174.634c-.085.931.65 1.862 1.358 2.451.709.589 2.614 1.178 3.119 1.327l-.113.827c-.172 1.326-.338 2.648-.537 3.96-.07.455-.16.901-.247 1.352v-.59c-.16-1.168-1.223-3.341-2.635-3.584a1.851 1.851 0 0 0-.707.039c-.23.059-.445.162-.629.302-.184.14-.334.314-.44.511a1.48 1.48 0 0 0-.178.633c-.086.926.644 1.862 1.358 2.446.714.584 2.432 1.124 3.027 1.302-.102.455-.209.911-.332 1.347-.092.297-.156.589-.269.881-.112.292-.204.584-.3.871-.215.545-.435 1.109-.66 1.639-.15.366-.306.713-.462 1.064.08-.45.21-1.342.215-1.421a5.745 5.745 0 0 0-.886-2.97c.01-.115.01-.231 0-.347a1.486 1.486 0 0 0-.233-.616 1.623 1.623 0 0 0-.484-.475 1.81 1.81 0 0 0-1.36-.235c-1.385.336-2.26 2.579-2.324 3.757 0 .069.043.832.08 1.307-.07-.277-.134-.545-.209-.832-.145-.564-.306-1.123-.478-1.727l-.29-.877c-.085-.292-.22-.594-.332-.891a29.422 29.422 0 0 0-.923-2.064c.536-.119 2.436-.565 3.22-1.104.784-.54 1.524-1.505 1.524-2.426a1.456 1.456 0 0 0-.127-.641 1.575 1.575 0 0 0-.4-.538 1.724 1.724 0 0 0-.602-.34 1.824 1.824 0 0 0-.701-.085c-1.422.144-2.684 2.238-2.92 3.391 0 .074-.102.921-.134 1.391a44.435 44.435 0 0 0-.628-1.232c-.639-1.184-1.32-2.362-1.997-3.54-.209-.361-.413-.728-.617-1.089.194-.04 2.458-.525 3.312-1.129.762-.535 1.567-1.411 1.556-2.347a1.456 1.456 0 0 0-.129-.639 1.567 1.567 0 0 0-.4-.536 1.722 1.722 0 0 0-.602-.339 1.837 1.837 0 0 0-.699-.085c-1.422.139-2.684 2.233-2.92 3.392 0 .084-.14 1.307-.155 1.618a54.793 54.793 0 0 1-1.283-2.396 26.689 26.689 0 0 1-1.401-3.331c.091 0 2.458-.495 3.333-1.134.757-.54 1.562-1.416 1.557-2.347a1.462 1.462 0 0 0-.13-.641 1.583 1.583 0 0 0-.401-.538 1.731 1.731 0 0 0-.604-.34 1.848 1.848 0 0 0-.701-.085c-1.422.144-2.684 2.238-2.914 3.392 0 .094-.15 1.405-.156 1.643 0-.064-.054-.129-.075-.198a18.717 18.717 0 0 1-.725-3.515 19.793 19.793 0 0 1-.134-1.906c.45-.049 2.512-.302 3.365-.777.854-.475 1.718-1.248 1.825-2.178a1.451 1.451 0 0 0-.05-.646 1.53 1.53 0 0 0-.328-.572 1.696 1.696 0 0 0-.552-.4 1.82 1.82 0 0 0-.68-.16c-1.433 0-2.91 1.956-3.306 3.075 0 .064-.167.708-.263 1.178v-.832c0-.99.07-1.916.134-2.727.043-.461.091-.877.145-1.263.413-.262 2.072-1.342 2.581-2.114.51-.772.902-1.836.537-2.708a1.56 1.56 0 0 0-.37-.554 1.715 1.715 0 0 0-.584-.366 1.821 1.821 0 0 0-1.38.039c-1.273.604-1.61 2.97-1.396 4.134 0 .099.5 1.643.537 1.629a33.769 33.769 0 0 0-.365 3.94c-.04 1.082-.01 2.164.086 3.243.102 1.207.319 2.403.65 3.574v.045a37.556 37.556 0 0 0-.95-1.287c-.838-.892-3.023-2.164-4.343-1.644-.217.091-.41.224-.567.389a1.534 1.534 0 0 0-.346.568 1.448 1.448 0 0 0 .162 1.266c.445.807 1.61 1.203 2.554 1.331Z" fill="#022C40"/>
  <path d="M76.21 193.108s.456-1.544.472-1.643c.177-1.169-.225-3.525-1.519-4.099a1.824 1.824 0 0 0-1.381-.005 1.7 1.7 0 0 0-.572.382c-.16.163-.28.355-.355.563-.343.877.092 1.956.612 2.693.612.862 2.743 2.104 2.743 2.109ZM175.67 196.627c.897.362 3.076.312 3.076.312s-.467-1.316-.51-1.396c-.478-.92-1.991-2.444-3.221-2.291-.203.03-.398.099-.571.204-.173.104-.32.241-.431.401-.112.16-.185.34-.216.529a1.24 1.24 0 0 0 .038.564c.204.787 1.079 1.366 1.835 1.677Z" fill="#022C40"/>
  <path d="M176.427 202.455c.923.124 2.872-.396 3.022-.441a23.37 23.37 0 0 0 1.181 3.015c.268.575.536 1.139.858 1.708a23.397 23.397 0 0 1-.365-.495c-.73-.777-2.624-1.876-3.757-1.431-.187.08-.354.195-.49.338-.136.143-.238.31-.299.492a1.25 1.25 0 0 0 .14 1.096c.419.713 1.433 1.065 2.254 1.174.821.108 2.501-.302 2.941-.416l.349.648c.537 1.035 1.127 2.065 1.653 3.094.183.362.349.723.537 1.085l-.317-.416c-.73-.773-2.624-1.877-3.757-1.431a1.446 1.446 0 0 0-.492.338 1.319 1.319 0 0 0-.3.493 1.259 1.259 0 0 0 .143 1.1c.419.708 1.433 1.059 2.254 1.168.821.109 2.335-.262 2.861-.396.161.376.322.752.456 1.124.091.252.193.495.268.752.076.258.151.495.231.763.124.495.258.99.371 1.485.08.336.15.653.22.99-.177-.361-.537-1.064-.58-1.119-.59-.866-2.286-2.218-3.489-1.936a1.544 1.544 0 0 0-.542.263 1.388 1.388 0 0 0-.378.445 1.264 1.264 0 0 0-.04 1.104c.3.763 1.239 1.248 2.034 1.486.875.247 2.807.024 3.048 0 .113.529.22 1.049.312 1.539.209 1.084.365 2.055.483 2.876h.816a68.698 68.698 0 0 0-.967-4.708 16.83 16.83 0 0 0 1.696-.737 10.977 10.977 0 0 0 2.48 1.485c-.225.495-.445.99-.66 1.446-.451.955-.88 1.807-1.256 2.524h.88c.322-.663.682-1.42 1.074-2.262.23-.495.461-1.059.692-1.624.236.045 2.147.406 3.038.218.81-.168 1.787-.589 2.147-1.327a1.266 1.266 0 0 0 .044-1.105 1.365 1.365 0 0 0-.341-.47 1.496 1.496 0 0 0-.519-.301c-1.175-.361-2.973.871-3.634 1.693-.037.05-.397.619-.617.99a32.38 32.38 0 0 0 .821-2.158c.081-.253.161-.495.247-.758.086-.262.145-.529.22-.797.161-.619.29-1.252.403-1.896.451.149 2.055.664 2.882.609.827-.054 1.868-.332 2.346-.99.121-.156.204-.335.245-.523a1.247 1.247 0 0 0-.009-.57 1.303 1.303 0 0 0-.262-.516 1.444 1.444 0 0 0-.468-.371c-1.106-.525-3.086.44-3.87 1.163-.054.045-.537.624-.821.946.064-.391.134-.778.188-1.169.15-1.138.268-2.292.391-3.465.038-.352.076-.703.119-1.055.161.055 2.05.708 2.978.644.827-.05 1.863-.332 2.346-.99a1.262 1.262 0 0 0 .234-1.094 1.319 1.319 0 0 0-.263-.516 1.446 1.446 0 0 0-.47-.37c-1.074-.525-3.081.44-3.87 1.163a32.83 32.83 0 0 0-.95 1.104c.091-.772.188-1.545.317-2.297.165-1.023.403-2.036.713-3.03.076.025 2.045.713 2.995.649.827-.05 1.868-.332 2.346-.99.121-.157.205-.335.245-.523a1.247 1.247 0 0 0-.009-.57 1.301 1.301 0 0 0-.261-.516 1.451 1.451 0 0 0-.469-.372c-1.106-.524-3.086.441-3.87 1.164-.064.059-.837.95-.966 1.124 0-.06.032-.119.048-.179.343-.987.779-1.945 1.305-2.861.279-.495.579-.99.885-1.441.355.164 1.975.891 2.84.921.864.03 1.889-.139 2.447-.767.136-.144.237-.312.298-.493a1.267 1.267 0 0 0-.141-1.097 1.392 1.392 0 0 0-.415-.415c-1.036-.634-3.118.128-3.987.767a33.18 33.18 0 0 0-.795.733c.14-.203.279-.416.419-.604.537-.723 1.073-1.357 1.513-1.911.269-.317.537-.594.757-.852.435 0 2.195-.059 2.963-.391.767-.331 1.61-.93 1.793-1.723a1.264 1.264 0 0 0-.216-1.087 1.424 1.424 0 0 0-.443-.39 1.555 1.555 0 0 0-.576-.191c-1.234-.124-2.684 1.436-3.151 2.371-.042.085-.493 1.411-.472 1.411h.027c-.231.243-.483.495-.746.802-.483.55-1.02 1.174-1.562 1.887a23.45 23.45 0 0 0-1.61 2.381 17.32 17.32 0 0 0-1.385 2.876.103.103 0 0 1 0 .035v-1.347c-.145-.99-1.073-2.901-2.292-3.109a1.607 1.607 0 0 0-.61.033c-.199.05-.384.138-.543.259-.16.12-.29.27-.382.44a1.26 1.26 0 0 0-.155.545c-.075.807.536 1.614 1.175 2.124.698.575 2.635 1.129 2.791 1.174a22.365 22.365 0 0 0-.821 3.113 41.775 41.775 0 0 0-.306 1.857v-.584c-.145-1.015-1.074-2.901-2.286-3.109a1.576 1.576 0 0 0-1.158.289 1.39 1.39 0 0 0-.383.441 1.28 1.28 0 0 0-.156.547c-.075.807.564 1.614 1.181 2.119.617.505 2.265 1.025 2.684 1.153l-.097.718c-.15 1.149-.295 2.297-.472 3.421-.059.396-.14.782-.215 1.168v-.495c-.139-.99-1.073-2.901-2.286-3.109a1.616 1.616 0 0 0-.612.031c-.2.05-.385.138-.545.259-.16.12-.291.271-.384.441-.093.17-.146.356-.155.547-.07.807.563 1.614 1.181 2.118a9.71 9.71 0 0 0 2.624 1.129c-.091.396-.182.792-.29 1.169-.075.257-.134.495-.23.767-.097.272-.178.495-.263.752-.188.471-.376.961-.569 1.421-.135.317-.269.619-.403.926.07-.396.183-1.168.188-1.233a4.96 4.96 0 0 0-.768-2.559 1.692 1.692 0 0 0 0-.302 1.277 1.277 0 0 0-.202-.533 1.404 1.404 0 0 0-.419-.411 1.561 1.561 0 0 0-1.177-.205c-1.202.292-1.964 2.238-2.018 3.258 0 .059.038.718.075 1.133-.064-.242-.118-.495-.182-.722-.129-.495-.268-.99-.419-1.485-.08-.248-.166-.496-.247-.758-.08-.262-.193-.495-.289-.772a27.995 27.995 0 0 0-.8-1.792c.467-.099 2.109-.495 2.769-.956.661-.46 1.353-1.228 1.348-2.035a1.27 1.27 0 0 0-.112-.561 1.367 1.367 0 0 0-.353-.469 1.486 1.486 0 0 0-.531-.294 1.596 1.596 0 0 0-.615-.067c-1.234.124-2.308 1.941-2.528 2.941 0 .064-.091.802-.118 1.203-.177-.351-.354-.713-.536-1.064-.537-1.025-1.149-2.05-1.734-3.07-.183-.317-.354-.628-.537-.94.161-.04 2.147-.456 2.872-.99.655-.466 1.352-1.228 1.347-2.035a1.27 1.27 0 0 0-.112-.562c-.08-.177-.2-.337-.353-.469a1.49 1.49 0 0 0-.53-.294 1.58 1.58 0 0 0-.615-.066c-1.235.123-2.308 1.94-2.534 2.94 0 .075-.118 1.134-.128 1.406a41.59 41.59 0 0 1-1.117-2.079 22.863 22.863 0 0 1-1.213-2.886c.075 0 2.147-.451 2.888-.99.66-.466 1.352-1.228 1.347-2.035a1.266 1.266 0 0 0-.112-.561c-.08-.178-.2-.338-.353-.47a1.521 1.521 0 0 0-.53-.294 1.6 1.6 0 0 0-.615-.066c-1.235.124-2.308 1.941-2.528 2.941 0 .079-.129 1.222-.134 1.425 0-.054-.049-.113-.065-.168a16.364 16.364 0 0 1-.628-3.049c-.07-.57-.102-1.119-.118-1.654.392-.045 2.179-.262 2.915-.673.735-.411 1.497-1.084 1.583-1.891a1.253 1.253 0 0 0-.043-.564 1.327 1.327 0 0 0-.289-.498 1.454 1.454 0 0 0-.485-.345 1.55 1.55 0 0 0-.595-.133c-1.245 0-2.522 1.693-2.866 2.668 0 .055-.145.609-.225 1.015v-.718c0-.866.064-1.658.123-2.361.032-.401.075-.762.118-1.099.36-.228 1.798-1.163 2.238-1.832.441-.668.789-1.594.467-2.346a1.336 1.336 0 0 0-.322-.482 1.497 1.497 0 0 0-.507-.318 1.585 1.585 0 0 0-1.199.032c-1.101.525-1.391 2.575-1.208 3.585 0 .089.429 1.425.451 1.415a27.17 27.17 0 0 0-.14 1.05 28.301 28.301 0 0 0-.177 2.366c-.037.938-.014 1.877.07 2.812.087 1.049.278 2.088.569 3.104a.103.103 0 0 0 0 .035 45.54 45.54 0 0 0-.821-1.114c-.73-.772-2.625-1.876-3.757-1.431-.188.08-.355.196-.491.339a1.333 1.333 0 0 0-.299.494 1.25 1.25 0 0 0 .14 1.098c.37.644 1.385.995 2.206 1.104Z" fill="#022C40"/>
  <path d="M197.735 197.069s.392-1.337.408-1.421c.15-.99-.199-3.06-1.315-3.555a1.584 1.584 0 0 0-1.199-.003c-.188.077-.358.19-.496.331a1.34 1.34 0 0 0-.307.489c-.301.758.081 1.693.537 2.332.52.757 2.367 1.827 2.372 1.827ZM151.239 201.667a8.288 8.288 0 0 0 2.249.228s-.344-.965-.371-1.02c-.349-.678-1.46-1.791-2.361-1.682-.15.022-.293.073-.42.149a1.039 1.039 0 0 0-.316.295.922.922 0 0 0-.129.803 2.1 2.1 0 0 0 .529.749c.233.212.512.375.819.478Z" fill="#022C40"/>
  <path d="M151.791 205.931a8.166 8.166 0 0 0 2.212-.322c.234.753.523 1.49.864 2.208.2.416.41.831.628 1.247a5.792 5.792 0 0 0-.268-.351c-.537-.57-1.917-1.377-2.754-1.045a1.084 1.084 0 0 0-.359.246.964.964 0 0 0-.22.359.922.922 0 0 0 .101.801c.19.245.436.449.721.597.285.148.601.237.927.26.728.002 1.453-.1 2.147-.302l.258.495c.413.757.826 1.485 1.207 2.262.135.262.258.53.381.797a7.402 7.402 0 0 0-.23-.307c-.537-.564-1.922-1.371-2.754-1.044a1.053 1.053 0 0 0-.361.246.968.968 0 0 0-.22.36.907.907 0 0 0 .104.805 2.2 2.2 0 0 0 .721.595c.285.148.601.237.926.261a7.32 7.32 0 0 0 2.094-.292c.118.277.236.549.338.822.064.188.139.361.193.554.054.193.113.371.166.56.097.356.193.727.274 1.079.059.242.113.495.161.713a19.722 19.722 0 0 0-.424-.822c-.435-.634-1.675-1.624-2.555-1.416a1.12 1.12 0 0 0-.397.193.998.998 0 0 0-.276.325.923.923 0 0 0-.03.809c.149.268.36.503.618.688.258.186.556.317.874.386a7.919 7.919 0 0 0 2.228 0c.085.391.166.772.23 1.129.151.792.269 1.485.355 2.109h.59a47.557 47.557 0 0 0-.708-3.451c.426-.157.842-.337 1.245-.539a8.007 8.007 0 0 0 1.808 1.079c-.161.366-.322.728-.477 1.059a53.434 53.434 0 0 1-.923 1.852h.665c.242-.495.499-1.045.773-1.659.166-.371.338-.772.505-1.188.729.158 1.48.212 2.227.159.324-.05.633-.164.905-.335.271-.171.499-.395.668-.656a.927.927 0 0 0 .035-.808.995.995 0 0 0-.251-.344 1.09 1.09 0 0 0-.38-.219c-.864-.267-2.179.634-2.684 1.238-.027.034-.29.45-.451.718.07-.169.14-.332.21-.495.134-.342.263-.693.397-1.07.059-.183.123-.366.182-.554.059-.188.108-.386.161-.579.118-.456.215-.921.296-1.392a7.629 7.629 0 0 0 2.109.446c.327 0 .65-.066.947-.193.297-.128.56-.314.77-.545a.943.943 0 0 0 .177-.381.942.942 0 0 0-.2-.789 1.03 1.03 0 0 0-.342-.27c-.805-.381-2.254.326-2.828.851-.038.035-.403.456-.601.693a21.9 21.9 0 0 0 .134-.856c.113-.832.199-1.673.29-2.515.027-.262.053-.52.086-.772a8.06 8.06 0 0 0 2.179.47c.327-.002.65-.07.947-.198.296-.128.559-.314.77-.545a.933.933 0 0 0-.025-1.166 1.043 1.043 0 0 0-.34-.269c-.805-.386-2.254.322-2.828.851-.049.04-.575.649-.698.807.064-.564.134-1.129.231-1.683.127-.749.306-1.49.537-2.218.7.266 1.44.433 2.195.495.326-.001.649-.069.945-.197a2.24 2.24 0 0 0 .767-.545.956.956 0 0 0 .177-.381.919.919 0 0 0-.197-.789 1.038 1.038 0 0 0-.34-.271c-.81-.381-2.259.327-2.834.856-.043.04-.612.693-.703.817 0-.039 0-.084.038-.128.247-.724.565-1.425.95-2.095.204-.371.424-.717.649-1.049.652.32 1.352.547 2.077.673.326.031.654-.004.964-.101.309-.098.592-.256.829-.463a.972.972 0 0 0 .229-.364.914.914 0 0 0 .044-.418.947.947 0 0 0-.147-.398 1.04 1.04 0 0 0-.314-.305c-.762-.466-2.286.094-2.92.559-.032.025-.354.317-.585.535a24.148 24.148 0 0 1 1.417-1.842l.537-.624a7.726 7.726 0 0 0 2.147-.282c.305-.109.581-.278.807-.497.226-.218.398-.479.503-.765a.93.93 0 0 0-.152-.797 1.046 1.046 0 0 0-.323-.286 1.125 1.125 0 0 0-.422-.14c-.907-.089-1.98 1.054-2.313 1.738 0 .059-.36 1.034-.338 1.034-.172.183-.354.377-.537.589-.349.401-.746.857-1.143 1.382a18.82 18.82 0 0 0-1.186 1.742 12.667 12.667 0 0 0-.972 2.075v.024-.99c-.107-.742-.783-2.119-1.674-2.272a1.15 1.15 0 0 0-.849.208.997.997 0 0 0-.282.322.95.95 0 0 0-.115.401c.014.301.098.596.247.864.15.269.36.504.618.69a7.873 7.873 0 0 0 2.039.861 16.274 16.274 0 0 0-.596 2.278c-.086.45-.161.901-.225 1.361v-.431c-.107-.742-.784-2.123-1.675-2.272a1.17 1.17 0 0 0-.449.021 1.09 1.09 0 0 0-.401.189 1.003 1.003 0 0 0-.282.324.938.938 0 0 0-.113.402c.012.301.095.597.245.866.149.268.361.503.619.688a7.502 7.502 0 0 0 1.975.842c0 .173-.048.351-.069.525-.113.841-.215 1.683-.349 2.505-.043.287-.102.574-.156.856v-.371c-.102-.743-.778-2.124-1.674-2.277a1.15 1.15 0 0 0-.848.211 1.027 1.027 0 0 0-.28.323.936.936 0 0 0-.112.401c.013.302.097.597.246.865.149.269.36.504.618.69.59.364 1.239.641 1.921.821-.069.293-.134.58-.214.857-.054.188-.097.376-.167.559l-.193.555c-.14.346-.274.703-.419 1.039-.096.233-.193.451-.289.674.048-.287.128-.852.134-.901a3.649 3.649 0 0 0-.537-1.872.75.75 0 0 0 0-.222.932.932 0 0 0-.147-.391 1.037 1.037 0 0 0-.306-.302 1.14 1.14 0 0 0-.862-.149c-.875.218-1.433 1.639-1.476 2.386 0 .045.027.525.054.832a38.646 38.646 0 0 0-.44-1.629c-.059-.178-.118-.366-.183-.554-.064-.188-.139-.377-.209-.565-.172-.44-.376-.876-.585-1.312a7.433 7.433 0 0 0 2.029-.698c.27-.168.498-.387.668-.643.171-.256.279-.543.319-.842a.926.926 0 0 0-.081-.407.996.996 0 0 0-.255-.341 1.087 1.087 0 0 0-.383-.215 1.16 1.16 0 0 0-.446-.052c-.901.089-1.69 1.416-1.851 2.149 0 .049-.065.584-.086.881-.129-.257-.258-.52-.397-.782-.403-.748-.838-1.485-1.267-2.243l-.392-.688a8.028 8.028 0 0 0 2.099-.718c.271-.166.5-.386.671-.642.17-.256.278-.544.316-.843a.921.921 0 0 0-.08-.406.999.999 0 0 0-.254-.34 1.15 1.15 0 0 0-.825-.269c-.907.089-1.691 1.416-1.852 2.149 0 .059-.091.831-.096 1.03a22.21 22.21 0 0 1-.816-1.52 16.13 16.13 0 0 1-.891-2.114 7.979 7.979 0 0 0 2.115-.723 2.15 2.15 0 0 0 .672-.642c.171-.256.278-.544.315-.843a.933.933 0 0 0-.079-.409 1 1 0 0 0-.255-.343 1.094 1.094 0 0 0-.384-.216 1.16 1.16 0 0 0-.446-.052c-.902.094-1.686 1.421-1.852 2.154 0 .059-.091.891-.097 1.044a1.174 1.174 0 0 0-.048-.129 11.869 11.869 0 0 1-.456-2.232 14.023 14.023 0 0 1-.092-1.203 7.847 7.847 0 0 0 2.147-.495 2.21 2.21 0 0 0 .745-.573c.201-.239.342-.514.415-.809a.918.918 0 0 0-.032-.413.962.962 0 0 0-.212-.365 1.078 1.078 0 0 0-.355-.254 1.148 1.148 0 0 0-.437-.096c-.907 0-1.847 1.237-2.093 1.95 0 .04-.108.446-.167.748v-.53a20.378 20.378 0 0 1 .177-2.53 6.993 6.993 0 0 0 1.551-1.336c.189-.247.317-.528.375-.825a1.927 1.927 0 0 0-.036-.893.978.978 0 0 0-.234-.354 1.097 1.097 0 0 0-.37-.235 1.161 1.161 0 0 0-.878.024c-.805.387-1.02 1.887-.885 2.624 0 .065.316 1.045.332 1.035-.032.237-.069.495-.102.772a21.118 21.118 0 0 0-.128 1.733c-.024.685-.006 1.371.053 2.054.066.767.204 1.528.414 2.273v.024a24.602 24.602 0 0 0-.602-.816c-.536-.565-1.921-1.372-2.758-1.045a1.067 1.067 0 0 0-.361.246.961.961 0 0 0-.221.361.915.915 0 0 0 .104.804c.194.243.442.444.729.59.286.145.603.231.929.252Z" fill="#022C40"/>
  <path d="M167.383 201.989s.29-.99.301-1.044c.113-.738-.145-2.233-.966-2.599a1.147 1.147 0 0 0-1.237.242.964.964 0 0 0-.223.357 1.925 1.925 0 0 0-.011.893c.067.295.203.573.397.815a7.687 7.687 0 0 0 1.739 1.336Z" fill="#022C40"/>
  <path d="M196.978 28.858a7.501 7.501 0 0 0 .326 4.912c.659 1.566 1.83 2.905 3.351 3.83a9.33 9.33 0 0 0 5.136 1.332 9.246 9.246 0 0 0 5.024-1.659l3.398 3c-.088.327-.081.67.018.993.1.324.29.619.55.854l7.38 6.669c.198.177.432.316.689.41a2.253 2.253 0 0 0 1.608-.023c.253-.1.482-.247.674-.43.192-.182.343-.398.445-.635a1.804 1.804 0 0 0-.025-1.482 1.934 1.934 0 0 0-.465-.623l-7.397-6.673a2.154 2.154 0 0 0-.954-.486 2.273 2.273 0 0 0-1.09.02l-3.323-2.95a7.753 7.753 0 0 0 1.686-3.1 7.494 7.494 0 0 0 .173-3.155 7.7 7.7 0 0 0-1.149-2.978 8.374 8.374 0 0 0-2.298-2.345 9.113 9.113 0 0 0-3.095-1.355 9.501 9.501 0 0 0-3.422-.16 9.27 9.27 0 0 0-3.228 1.06 8.57 8.57 0 0 0-2.542 2.119 7.85 7.85 0 0 0-1.47 2.855Zm15.506 3.594c-.348 1.275-1.098 2.427-2.155 3.309a7.483 7.483 0 0 1-3.786 1.646 7.75 7.75 0 0 1-4.139-.571c-1.288-.564-2.366-1.468-3.098-2.597a6.249 6.249 0 0 1-1.011-3.746 6.336 6.336 0 0 1 1.416-3.633 7.196 7.196 0 0 1 3.365-2.294 7.789 7.789 0 0 1 4.181-.184c1.852.432 3.443 1.525 4.423 3.038.98 1.512 1.269 3.322.804 5.032ZM34.667 126.963a6.715 6.715 0 0 0-3.431 1.913 5.86 5.86 0 0 0-1.598 3.392 5.695 5.695 0 0 0 .828 3.618c.676 1.098 1.705 1.974 2.946 2.508l-.988 3.134a1.622 1.622 0 0 0-.712.355c-.2.174-.346.393-.426.635l-2.281 6.867c-.112.372-.063.77.137 1.109.2.339.537.593.936.708.404.103.835.058 1.203-.127a1.52 1.52 0 0 0 .767-.864l2.265-6.866c.08-.246.088-.508.022-.758a1.42 1.42 0 0 0-.398-.663l.977-3.079c.97.184 1.971.165 2.932-.056a6.822 6.822 0 0 0 2.616-1.222 6.172 6.172 0 0 0 1.784-2.146 5.688 5.688 0 0 0 .6-2.647 5.715 5.715 0 0 0-.7-2.626 6.234 6.234 0 0 0-1.865-2.087 6.865 6.865 0 0 0-2.66-1.136 7.15 7.15 0 0 0-2.932.038h-.022Zm2.78 10.793a5.855 5.855 0 0 1-3.14-.177 5.398 5.398 0 0 1-2.506-1.758 4.752 4.752 0 0 1-1.025-2.745c-.04-.988.24-1.965.802-2.807a5.306 5.306 0 0 1 2.357-1.923 5.835 5.835 0 0 1 3.12-.391c1.058.157 2.042.6 2.828 1.273a4.931 4.931 0 0 1 1.585 2.508 4.676 4.676 0 0 1-.653 3.771c-.749 1.128-1.952 1.936-3.346 2.249h-.021ZM213.611 81.34h-15.565c-1.01 0-1.98.37-2.694 1.029-.715.659-1.116 1.553-1.116 2.485V92.8c0 .932.401 1.826 1.116 2.485a3.978 3.978 0 0 0 2.694 1.03h10.842l-.536 4.95 5.045-4.95h.214c.501 0 .996-.091 1.459-.268a3.85 3.85 0 0 0 1.236-.762 3.5 3.5 0 0 0 .826-1.14c.192-.427.29-.884.29-1.345v-7.946c0-.462-.098-.919-.29-1.345a3.502 3.502 0 0 0-.826-1.14 3.85 3.85 0 0 0-1.236-.762 4.094 4.094 0 0 0-1.459-.268ZM35.795 100.151H46.34c.34 0 .675.062.988.181.313.12.598.295.838.517.24.221.43.483.56.772.13.289.196.599.196.911v5.382c0 .312-.067.622-.197.911-.13.289-.32.551-.56.772-.239.222-.523.397-.837.517a2.787 2.787 0 0 1-.988.181H39l.381 3.346-3.44-3.346h-.145a2.694 2.694 0 0 1-1.826-.698 2.29 2.29 0 0 1-.756-1.683v-5.382c0-.631.272-1.237.756-1.683a2.694 2.694 0 0 1 1.826-.698ZM113.754 9.436H124.3c.685 0 1.342.251 1.826.698.484.446.756 1.052.756 1.684v5.38c0 .632-.272 1.238-.756 1.685a2.696 2.696 0 0 1-1.826.697h-7.342l.381 3.347-3.44-3.347h-.145c-.685 0-1.341-.25-1.826-.697a2.292 2.292 0 0 1-.756-1.684v-5.382c0-.631.272-1.237.756-1.683a2.698 2.698 0 0 1 1.826-.698Z" stroke="#022C40" stroke-miterlimit="10"/>
  <path d="m99.423 20.367 25.806 66.516 55.417-65.466M202.657 63.779l-77.428 23.104 51.998 53.912" stroke="#022C40" stroke-miterlimit="10"/>
  <path d="m65.642 138.696 59.587-51.813L44.007 74.28" stroke="#022C40" stroke-miterlimit="10"/>
  <path d="M209.283 67.344c2.01-3.542.526-7.915-3.313-9.77-3.84-1.853-8.581-.485-10.591 3.057-2.01 3.541-.527 7.915 3.313 9.769 3.839 1.853 8.581.485 10.591-3.056Z" fill="#022C40" stroke="#022C40" stroke-width=".5" stroke-miterlimit="10"/>
  <path d="M204.927 63.487h-5.115c-.48 0-.94.176-1.279.488-.339.313-.53.738-.53 1.18v3.96a7.416 7.416 0 0 0 4.379 1.372 7.4 7.4 0 0 0 4.354-1.436v-3.896c0-.442-.191-.867-.53-1.18a1.888 1.888 0 0 0-1.279-.488ZM202.281 62.759a2.76 2.76 0 0 0 1.446-.405c.428-.264.762-.639.959-1.077.197-.44.249-.922.148-1.388a2.347 2.347 0 0 0-.712-1.229 2.678 2.678 0 0 0-1.333-.657 2.807 2.807 0 0 0-1.504.137c-.476.181-.882.489-1.168.884a2.271 2.271 0 0 0-.439 1.334c0 .637.274 1.247.762 1.698.489.45 1.151.703 1.841.703Z" fill="#275F7A" stroke="#022C40" stroke-miterlimit="10"/>
  <path d="M185.262 141.018c1.673-3.687-.211-7.927-4.209-9.471-3.998-1.543-8.595.195-10.268 3.883-1.673 3.687.211 7.927 4.209 9.471 3.998 1.543 8.595-.195 10.268-3.883Z" fill="#022C40" stroke="#022C40" stroke-width=".5" stroke-miterlimit="10"/>
  <path d="M180.656 137.746h-5.115a1.93 1.93 0 0 0-.691.125c-.22.083-.419.206-.587.36a1.646 1.646 0 0 0-.392.541 1.548 1.548 0 0 0-.138.637v3.961a7.418 7.418 0 0 0 4.378 1.371 7.4 7.4 0 0 0 4.354-1.436v-3.896c0-.219-.047-.435-.138-.637a1.66 1.66 0 0 0-.392-.541 1.818 1.818 0 0 0-.587-.36 1.932 1.932 0 0 0-.692-.125ZM177.973 137.014c.515 0 1.018-.141 1.446-.405.428-.264.762-.639.959-1.078a2.23 2.23 0 0 0 .148-1.387 2.343 2.343 0 0 0-.713-1.229 2.667 2.667 0 0 0-1.332-.657 2.8 2.8 0 0 0-1.504.136c-.476.182-.883.49-1.169.885a2.235 2.235 0 0 0-.24 2.252c.131.292.322.556.564.779.242.223.529.4.845.521.315.12.654.183.996.183Z" fill="#275F7A" stroke="#022C40" stroke-miterlimit="10"/>
  <path d="M99.085 25.04c3.077 0 5.571-2.3 5.571-5.138s-2.494-5.139-5.57-5.139c-3.078 0-5.572 2.3-5.572 5.139 0 2.838 2.494 5.139 5.571 5.139Z" fill="#022C40" stroke="#022C40" stroke-width=".5" stroke-miterlimit="10"/>
  <path d="M100.931 19.58h-3.628c-.34 0-.666.125-.907.347-.24.221-.376.523-.376.836v2.778a5.275 5.275 0 0 0 3.106.97 5.261 5.261 0 0 0 3.088-1.015v-2.758a1.14 1.14 0 0 0-.385-.82 1.341 1.341 0 0 0-.898-.338ZM99.074 19.035c.365 0 .722-.1 1.026-.287a1.74 1.74 0 0 0 .68-.765 1.58 1.58 0 0 0 .105-.983 1.665 1.665 0 0 0-.505-.872 1.899 1.899 0 0 0-.945-.466 1.991 1.991 0 0 0-1.067.097 1.823 1.823 0 0 0-.829.627 1.61 1.61 0 0 0-.311.946c0 .451.195.885.54 1.204.347.32.817.498 1.306.498Z" fill="#275F7A" stroke="#022C40" stroke-miterlimit="10"/>
  <path d="M69.929 139.835c1.185-2.619-.157-5.628-2.996-6.721-2.84-1.093-6.102.144-7.287 2.763-1.185 2.619.156 5.629 2.996 6.722 2.84 1.092 6.102-.145 7.287-2.764Z" fill="#022C40" stroke="#022C40" stroke-width=".5" stroke-miterlimit="10"/>
  <path d="M66.635 137.509h-3.629a1.359 1.359 0 0 0-.912.346 1.19 1.19 0 0 0-.279.386 1.105 1.105 0 0 0-.097.456v2.807c.887.64 1.983.984 3.108.975a5.242 5.242 0 0 0 3.092-1.02v-2.762c0-.156-.032-.31-.097-.455a1.177 1.177 0 0 0-.277-.385 1.287 1.287 0 0 0-.417-.258 1.371 1.371 0 0 0-.492-.09ZM64.756 136.988c.365 0 .722-.1 1.026-.287a1.74 1.74 0 0 0 .68-.764 1.58 1.58 0 0 0 .105-.984 1.667 1.667 0 0 0-.505-.872 1.903 1.903 0 0 0-.946-.466 1.997 1.997 0 0 0-1.066.097 1.823 1.823 0 0 0-.829.627 1.61 1.61 0 0 0-.311.946c0 .452.194.885.54 1.204a1.93 1.93 0 0 0 1.306.499Z" fill="#275F7A" stroke="#022C40" stroke-miterlimit="10"/>
  <path d="M185.729 21.396c1.121-2.643-.294-5.623-3.159-6.657-2.866-1.034-6.097.27-7.218 2.914-1.121 2.643.294 5.624 3.159 6.657 2.866 1.034 6.097-.27 7.218-2.914Z" fill="#022C40" stroke="#022C40" stroke-width=".5" stroke-miterlimit="10"/>
  <path d="M182.401 19.18h-3.634c-.168 0-.335.03-.491.09a1.3 1.3 0 0 0-.416.256c-.119.11-.213.24-.278.384a1.112 1.112 0 0 0-.098.452v2.812a5.284 5.284 0 0 0 3.108.97 5.273 5.273 0 0 0 3.092-1.014v-2.768c0-.155-.034-.309-.098-.452a1.192 1.192 0 0 0-.278-.384 1.3 1.3 0 0 0-.416-.257 1.38 1.38 0 0 0-.491-.09ZM180.522 18.658c.365 0 .722-.1 1.026-.287a1.74 1.74 0 0 0 .68-.764 1.58 1.58 0 0 0 .105-.983 1.665 1.665 0 0 0-.505-.872 1.897 1.897 0 0 0-.946-.466 1.988 1.988 0 0 0-1.066.097 1.82 1.82 0 0 0-.829.627c-.203.28-.311.609-.311.946 0 .451.194.884.541 1.204.346.319.816.498 1.305.498Z" fill="#275F7A" stroke="#022C40" stroke-miterlimit="10"/>
  <path d="M52.691 76.698c2.184-4.773-.24-10.276-5.416-12.29-5.175-2.015-11.14.222-13.325 4.995-2.184 4.774.241 10.277 5.416 12.291 5.176 2.015 11.142-.222 13.325-4.996Z" fill="#022C40" stroke="#022C40" stroke-width=".5" stroke-miterlimit="10"/>
  <path d="M46.695 72.418h-6.628a2.45 2.45 0 0 0-1.657.632c-.44.404-.687.953-.689 1.526v5.129c1.62 1.163 3.62 1.788 5.672 1.773 2.053-.014 4.041-.667 5.642-1.852v-5.05c0-.572-.246-1.121-.685-1.526a2.443 2.443 0 0 0-1.655-.632ZM43.255 71.467c.667 0 1.318-.182 1.873-.524a3.178 3.178 0 0 0 1.241-1.395 2.885 2.885 0 0 0 .192-1.796 3.043 3.043 0 0 0-.922-1.592 3.468 3.468 0 0 0-1.726-.851 3.635 3.635 0 0 0-1.948.177 3.327 3.327 0 0 0-1.513 1.145 2.94 2.94 0 0 0-.567 1.727c0 .825.355 1.616.987 2.199a3.52 3.52 0 0 0 2.383.91Z" fill="#275F7A" stroke="#022C40" stroke-miterlimit="10"/>
  <path d="M76.409 35.739v-.09a6.486 6.486 0 0 0-1.581-3.507 7.357 7.357 0 0 0-3.384-2.166 7.567 7.567 0 0 0-4.176-.094c.303-.95.407-1.945.306-2.93-.2-1.972-1.204-3.8-2.81-5.114-1.607-1.314-3.695-2.015-5.84-1.962-2.147.054-4.19.858-5.718 2.25-1.527 1.392-2.423 3.267-2.507 5.246h-.37c-2.245 0-4.398.823-5.985 2.287-1.587 1.464-2.479 3.45-2.479 5.52-.002.7.099 1.396.3 2.07.285.905.881 1.7 1.7 2.264a4.959 4.959 0 0 0 2.836.86h25a5.038 5.038 0 0 0 1.88-.354 4.715 4.715 0 0 0 1.57-1.017c.442-.434.781-.949.998-1.51a4.022 4.022 0 0 0 .26-1.753ZM204.809 114.983a.2.2 0 0 1 0-.049 3.505 3.505 0 0 0-.853-1.898 3.98 3.98 0 0 0-1.83-1.172 4.06 4.06 0 0 0-2.255-.049 3.873 3.873 0 0 0 .172-1.584c-.079-1.086-.611-2.101-1.483-2.833a4.798 4.798 0 0 0-3.198-1.095c-1.179.029-2.3.478-3.128 1.253-.828.774-1.3 1.815-1.315 2.902h-.199c-1.212.002-2.374.447-3.23 1.238-.856.79-1.337 1.863-1.337 2.98.001.376.055.751.161 1.114.152.49.473.92.915 1.226.442.306.98.47 1.532.467h13.493c.35.004.697-.06 1.019-.186.322-.126.612-.313.852-.547.241-.235.425-.514.543-.818.118-.304.166-.627.141-.949ZM86.14 153.132v-.044a3.498 3.498 0 0 0-.853-1.899 3.97 3.97 0 0 0-1.831-1.171 4.057 4.057 0 0 0-2.255-.049c.165-.514.221-1.051.167-1.584-.115-1.024-.628-1.975-1.444-2.676a4.823 4.823 0 0 0-2.995-1.141c-1.198-.027-2.36.382-3.234 1.139-.873.757-1.39 1.8-1.435 2.905h-.199c-.6 0-1.196.108-1.75.32a4.612 4.612 0 0 0-1.485.914 4.21 4.21 0 0 0-.991 1.369 3.932 3.932 0 0 0-.347 1.615c0 .377.056.751.167 1.114.15.491.471.922.913 1.228.442.306.981.469 1.534.465H83.59c.35.003.697-.061 1.019-.188.321-.127.611-.314.85-.549a2.31 2.31 0 0 0 .541-.818c.117-.305.165-.628.14-.95ZM162.945 24.18a.166.166 0 0 0 0-.045 3.493 3.493 0 0 0-.852-1.9 3.959 3.959 0 0 0-1.832-1.17 4.058 4.058 0 0 0-2.254-.054 3.78 3.78 0 0 0 .166-1.58c-.079-1.085-.611-2.1-1.483-2.832a4.798 4.798 0 0 0-3.198-1.095c-1.179.029-2.3.478-3.128 1.253-.828.774-1.3 1.814-1.315 2.902h-.199a4.89 4.89 0 0 0-2.025.441 4.514 4.514 0 0 0-1.605 1.222 4.078 4.078 0 0 0-.852 1.751 3.896 3.896 0 0 0 .076 1.918c.152.49.473.92.915 1.226.442.306.98.47 1.532.467h13.493c.352.005.7-.057 1.023-.183.324-.126.615-.313.856-.549a2.3 2.3 0 0 0 .543-.82c.118-.305.165-.63.139-.953Z" stroke="#022C40" stroke-miterlimit="10"/>
  <path d="M166.108 123.572c22.778-21.01 22.778-55.073 0-76.083-22.778-21.009-59.708-21.009-82.485 0-22.778 21.01-22.778 55.073 0 76.083 22.777 21.009 59.707 21.009 82.485 0Z" fill="#fff" stroke="#022C40" stroke-miterlimit="10"/>
  <path d="m122.765 60.626 5.539 2.297 1.519 2.297 2.496.896.274 2.425-.966 1.401-1.938.387-4.154-1.535v-.495l2.351-.896-.827-2.678-3.757-1.278-1.658-2.044 1.121-.777Zm34.888 58.986-4.428-1.659-5.4-1.787h-4.294l-4.014-.767-4.434.891-2.49.129h-1.519l-2.909 1.534-2.791 1.02-3.757-2.168.966-3.579-2.351-.892h-2.769l-.414-1.148.274-2.302-.966-1.272-1.938.252-.536 1.277-2.351.129-2.077-2.297-.832-3.065 2.077-3.579 4.015.258 1.111.896h1.658l2.077-1.154 1.798.495 2.491 3.961.971-.129-.279-2.936-.778-1.515.274-2.425 5.12-2.045.692-4.723 2.217-1.663 1.798-2.936 1.385-.252 3.182-1.916.14-1.02-2.211.124-.419-1.02h-1.519l-2.356.495 1.106-1.659 4.83-1.277 1.106-1.148 1.937 2.807 1.251 1.148 1.937-.495-.831-1.658-2.91-1.916-3.322-3.466-3.456-2.173-3.323-.495-1.664-1.53-2.216-.495-.274.495-.279 3.703.537 1.273-1.245 4.089-2.759-2.03.413-1.787-2.898-1.287-1.256-1.382.692-3.188 4.015-2.683.279-3.064-1.524.128-.972-1.148-.413-1.916-.972-.129-.536 2.045-1.519.252-.693-4.455-1.127-.693-1.937-.768-2.212 1.02 2.765 2.426.536 2.173-4.986-3.465-3.462-3.465-.274-3.466-3.579-.95-2.77 1.663a23.15 23.15 0 0 1-2.061 1.02c-1.093.24-2.203.405-3.322.495l-.537 2.173-3.183.124.28 1.406 5.12.767 2.63 2.678v4.456l-1.525 3.96.28 4.213-3.876 6.253-.832 9.322 1.208 5.391 1.798 4.089 2.077.253-.692-2.04-1.106-1.534-.692-2.807 1.245-.258 1.938 4.6 1.384 4.084v3.316l2.63 2.941 4.707 3.188 7.198 1.792 2.216 1.911 1.659 2.045 2.496 1.406 3.043.762 3.043-.124s-.134 1.278-.134 1.916c0 .639-1.938 2.807-1.938 2.807l-1.519 2.545 1.106 2.807 3.049 1.148 4.293 4.09 1.938.762v1.916l.242.891c10.766-1.605 20.825-5.973 29.026-12.604l.075-.926 3.757-6.257-1.798-1.149-7.632 1.926Zm14.416-50.432-1.524-2.43-1.938-2.808-.537-3.831 2.491.386.139-1.278-1.803-.128 1.524-.639 1.664-.891v-1.277l-1.664-2.045-.354-2.747c-8.044-9.08-19.084-15.49-31.439-18.25-12.356-2.762-25.351-1.725-37.009 2.952l3.188 2.084-1.975 2.297-2.63.496-.274 3.465-1.111.381-1.385 1.396.14 2.297 2.356.258-.972 2.168h2.357l4.009-4.723.419-2.044 3.875-.253.966-1.535 4.015-.38.418-2.174 2.904-.124s2.077-1.024 2.496-1.024c.799.16 1.585.373 2.35.638l2.078 1.535h2.909l2.49-1.406 3.183.257c.458.275.981.445 1.524.495.692 0 2.77-.896 2.77-.896l4.009 2.297 1.664 1.154v1.91l2.077.258.692-1.148 1.798.767-.139 1.02-4.149 1.02 2.351 2.812 4.981 2.554 2.077 2.55 3.048.257.693-1.277 1.105-.258-3.601-2.55-2.211-.257 1.798-.495-1.659-2.173 2.351-.124 3.043 1.53.693 3.064 1.524 1.659 1.245 3.703 3.049 2.044v4.213l3.182 1.916-.139 1.406-.413 1.659.826 2.297.279 1.148 2.351.386 1.111-2.173.714-1.39Zm1.798-12.872v.733l-.725 2.05.414 1.787 1.524.495v2.426l-1.659-.639-.407 6.916-1.659 2.807 1.106 3.58 1.798 1.53v6.895l1.803 5.362L178 94.334l3.183.767 1.105-2.554.451-.327c.3-2.219.45-4.452.451-6.688.017-10.368-3.229-20.519-9.344-29.218l.021-.005Zm-31.978-.797-9.124-3.703-4.015.13-.966 2.425-1.664-1.663-3.043.638-.279 4.218 2.49 1.659 1.803-2.426 2.04 1.9 4.294 3.466.832 3.703 3.596 4.213 5.818-.89-.14-1.917-1.245-2.173-.274-5.104 1.385-2.174-1.508-2.302Zm7.477 2.807-2.078-.495-1.798 1.406.966 3.703h1.804l1.106-4.614Zm12.881 2.426-4.707-2.297-.972-1.53-1.105.382.966 2.554.832 3.317 2.077.767.413-.495-1.245-1.916 3.601 1.278.14-2.06Zm-40.421 46.095-.537.495 4.155 1.149 1.664 1.787 2.63.257.966-1.406-3.183-.495-5.695-1.787Zm12.345 2.426-2.909.767.418 1.02h3.597l.692-1.02-1.245.124-.553-.891Z" fill="#275F7A" stroke="#022C40" stroke-miterlimit="10"/>
  <path d="M166.165 152.256a12.707 12.707 0 0 0 .537 4.124c.638 1.881 1.272 3.649 1.91 4.357.639.708 1.664-.471.768-1.886-.896-1.416-.381-2.941.129-2.941s4.594 2.351 5.233 3.178c.639.827 2.555 2.946 2.555 1.53 0-1.416-2.936-4.357-3.446-5.183-.51-.827-3.322-4.357-3.322-4.357l-4.364 1.178Z" fill="#fff" stroke="#022C40" stroke-linejoin="round"/>
  <path d="m167.974 147.895 2.555 3.183-4.852 2.47-2.298-2.589 4.595-3.064Z" fill="#275F7A" stroke="#022C40" stroke-linejoin="round"/>
  <path d="M140.907 213.846s-1.916 3.887-2.684 4.951c-.767 1.064-1.406 1.53-2.684 1.767-1.277.238-3.445.471-3.445 1.411.015.584.2 1.154.536 1.649 0 0 6.001 1.178 8.051.708 2.051-.471 4.085-3.065 4.085-3.065l1.277.708 3.704-3.297a10.266 10.266 0 0 0-1.294-3.302c-1.149-2.119-1.787-3.648-1.787-3.648s-2.823 2.118-5.759 2.118Z" fill="#616161" stroke="#022C40" stroke-linejoin="round"/>
  <path d="M148.931 216.352c-1.342 1.163-4.444 3.96-5.292 4.648-1.074.876-3.274 2.629-4.96 2.629-1.213 0-4.599-.451-6.44-.708.082.245.197.48.343.698 0 0 6.001 1.178 8.051.708s4.084-3.064 4.084-3.064l1.278.707 3.703-3.297a8.498 8.498 0 0 0-.767-2.321Z" stroke="#022C40" stroke-linejoin="round"/>
  <path d="M130.951 198.183s2.426 4.708 4.83 7.534c2.405 2.827 5.104 9.189 5.104 9.189s2.174.708 3.704-.357a5.781 5.781 0 0 0 2.045-2.821s-3.065-8.718-4.214-12.486c-1.148-3.767-3.961-12.015-5.238-14.015a45.769 45.769 0 0 0-3.167-4.258s-1.406 7.773-2.045 10.714c-.638 2.94-1.019 6.5-1.019 6.5Z" fill="#022C40" stroke="#022C40" stroke-linejoin="round"/>
  <path d="m119.583 144.008.129 7.535s-2.147 13.901-.382 20.966c1.766 7.064 4.595 14.852 4.595 14.852s-1.401 12.955-1.916 16.134c-.516 3.178-2.684 9.188-2.684 9.188s3.703 1.767 4.342 1.767h1.278s3.826-9.539 4.594-10.955c.767-1.416 3.446-4.119 4.342-10.01.896-5.892 1.154-12.02 1.154-12.02s6.382-7.54 7.917-9.902c1.535-2.361 3.955-7.188 3.955-7.188s2.813-6.713 2.426-13.188c-.386-6.476-2.549-9.773-2.549-9.773s-12.517 2.708-18.388 2.708c-5.872 0-8.813-.114-8.813-.114Z" fill="#022C40" stroke="#022C40" stroke-linejoin="round"/>
  <path d="M122.841 101.71s2.479 2.288 2.104 3.085c-.376.797-6.806 1.143-8.169 2.628-1.364 1.486-7.182 20.328-7.182 20.328s-6.934-1.832-7.551-2.288c-.618-.455-1.364-.113-1.734 1.258-.37 1.371-4.084 4.455-3.59 5.252.493.797 7.304 3.882 10.648 4.684 2.036.483 4.108.826 6.199 1.024l-.494 5.827s6.312 3.312 18.571 1.827c12.259-1.485 17.347-3.881 17.347-3.881l-1.482-11.763s8.051 13.931 9.409 16.337c1.358 2.406 3.092 5.941 4.579 6.396 1.486.456 6.811-2.742 6.934-4.109.123-1.366-4.455-7.995-8.051-13.703-3.596-5.708-8.545-21.812-9.285-25.248-.741-3.436-2.727-6.282-4.831-6.738-2.104-.455-7.798-.46-10.278-.916-2.48-.455-5.942-4.222-7.552-9.02l-5.592 9.02Z" fill="#275F7A" stroke="#022C40" stroke-miterlimit="10"/>
  <path d="M118.397 112.339c.627-1.227 1.111-2.064 1.111-2.064M113.566 137.682s1.487-14.728 2.104-18.268a23.311 23.311 0 0 1 1.777-5.089M143.392 116.19a59.183 59.183 0 0 1-.494-2.375M147.482 129.691s-2.056-5.619-3.543-11.292" stroke="#022C40" stroke-miterlimit="10"/>
  <path d="M121.617 105.775c.596 1.178 2.506 3.559 8.298 3.465 6.832-.104 9.838-4.455 10.943-7.104a47.38 47.38 0 0 1-4.878-.435c-2.475-.456-5.942-4.223-7.552-9.02l-5.587 9.03s2.479 2.287 2.104 3.084c-.172.371-1.664.648-3.328.98Z" fill="#fff" stroke="#022C40" stroke-miterlimit="10"/>
  <path d="m127.473 95.943-1.686.99-2.946 4.762a12.921 12.921 0 0 1 1.857 2.144c2.775-3.045 2.775-7.896 2.775-7.896Z" fill="#022C40" stroke="#022C40" stroke-linejoin="round"/>
  <path d="M108.483 90.869s2.351 3.767 2.968 5.48c.905 2.1 2.628 3.81 4.831 4.797 2.227.911 3.344 1.713 5.324 1.827 2.839.164 4.949-3.54 6.065-6.396 1.116-2.856 1.116-3.312 1.116-3.312s1.729-2.396 1.729-4.911c0-2.515-3.092-5.366-6.559-6.852-3.467-1.485-5.818-3.653-9.409-.683-3.59 2.97-6.065 10.05-6.065 10.05Z" fill="#fff" stroke="#022C40" stroke-miterlimit="10"/>
  <path d="M114.672 94.517c.263.661.429 1.352.493 2.054 0 .802 1.117 1.143 2.104-.57M117.516 98.294s3.097.455 3.714-2.97" stroke="#022C40" stroke-miterlimit="10"/>
  <path d="M118.15 90.557c.289.455.3.945 0 1.098-.301.154-.741-.099-1.031-.554-.29-.455-.295-.95 0-1.099.295-.148.741.1 1.031.555ZM113.153 92.849c.29.455.3.95 0 1.098-.301.149-.741-.099-1.025-.554-.285-.455-.301-.95 0-1.099.3-.148.74.09 1.025.555Z" fill="#022C40"/>
  <path d="M114.602 89.032s.537-1.792 4.02-1.554M112.004 90.83s-1.943 0-1.814 1.434" stroke="#022C40" stroke-miterlimit="10"/>
  <path d="M117.393 82.64s-1.61 1.714-3.467 3.427-4.949 4.228-4.949 7.307c0 3.079.123 3.425.123 3.425s-5.324-2.51-6.811-5.94c-1.486-3.43 1.858-11.307 5.942-14.852s8.915-4.223 14.239-3.881c5.325.341 10.649 5.252 12.012 10.163 1.363 4.911-1.363 10.278-2.233 11.189-.869.91-3.59 1.03-3.59 1.03.581-1.737.709-3.576.375-5.367-.622-2.629-2.356-2.055-2.603-.916-.247 1.139-.37 1.6-.37 1.6s-2.474-1.6-5.077-3.313c-1.532-.99-2.767-2.322-3.591-3.871Z" fill="#022C40" stroke="#022C40" stroke-linejoin="round"/>
  <path d="m93.874 128.781 3.338-4.57 1.61 1.485-4.948 3.085Z" fill="#275F7A" stroke="#022C40" stroke-linejoin="round"/>
  <path d="m105.676 122.043-7.777.029-7.412-13.168 7.777-.03 7.412 13.169Z" fill="#022C40" stroke="#022C40" stroke-linejoin="round"/>
  <path d="M91.77 115.3s1.98 1.713 2.104 2.515c.123.802 1.11 3.881 1.61 5.366.499 1.486 2.35 3.085 2.35 3.085l1.61-1.486-.622-2.514a23.427 23.427 0 0 1 1.857-1.372c.746-.455 1.61-1.713 1.117-1.713a7.336 7.336 0 0 0-1.117.119s1.117-1.599.376-1.713a10.879 10.879 0 0 0-1.487-.119s1.235-1.366.247-1.485c-.987-.119-4.46 1.599-4.46 1.599l-1.481-2.059a2.834 2.834 0 0 0-1.027-.311 2.916 2.916 0 0 0-1.077.088Z" fill="#fff" stroke="#022C40" stroke-linejoin="round"/>
  <path d="M92.177 114.547a.693.693 0 0 0-.226.319.64.64 0 0 0-.01.38.689.689 0 0 0 .21.328c.101.089.228.15.365.176.228.074.472.093.71.054s.461-.134.648-.276c.617-.684 3.091-2.51 3.091-3.426 0-.916-1.11.114-1.61.346a25.385 25.385 0 0 0-3.178 2.099Z" fill="#fff" stroke="#022C40" stroke-linejoin="round"/>
  <path d="M99.568 117.469s-3.714 1.712-4.337 2.4M100.685 119.3s-2.969 1.252-3.961 2.282" stroke="#022C40" stroke-linejoin="round"/>
  <path d="m100.926 125.35-1.728-1.371-5.324 4.797 3.59 2.515s3.339-2.971 3.462-5.941Z" fill="#275F7A" stroke="#022C40" stroke-linejoin="round"/>
  <path d="M135.164 151.9s-5.749 12.48-7.026 17.683c-1.277 5.203-3.703 15.075-3.703 15.664M126.861 155.435l3.322 3.528" stroke="#757575" stroke-linejoin="round"/>
  <path d="M119.33 212.317s-.767 1.53-4.47 2.233c-3.704.703-7.15-.585-7.788-.471-.639.114-1.278 1.179-1.278 2.124 0 .946 4.471 3.53 6.258 4.357a16.47 16.47 0 0 0 4.471 1.059h.634l-.124 1.178a25.48 25.48 0 0 0 3.188.941c.976.133 1.967.133 2.942 0 .388-1.506.602-3.046.638-4.594a13.198 13.198 0 0 1 1.149-4.708l-5.62-2.119Z" fill="#616161" stroke="#022C40" stroke-linejoin="round"/>
  <path d="M123.549 221.896c-2.517-.302-7.16-.99-9.978-1.98-2.984-1.04-6.328-3.158-7.745-4.099a2.204 2.204 0 0 0-.032.371c0 .941 4.471 3.53 6.258 4.357 1.424.558 2.932.916 4.471 1.059h.634l-.124 1.178a25.48 25.48 0 0 0 3.188.941c.976.133 1.967.133 2.942 0 0 0 .204-.752.386-1.827Z" stroke="#022C40" stroke-linejoin="round"/>
</svg>
